<svg id="Layer_1" data-name="Layer 1" xmlns="http://www.w3.org/2000/svg" xmlns:xlink="http://www.w3.org/1999/xlink" viewBox="0 0 565.5 492.65"><defs><linearGradient id="linear-gradient" x1="363.45" y1="147.58" x2="392.5" y2="266.41" gradientUnits="userSpaceOnUse"><stop offset="0" stop-color="#010101" stop-opacity="0"/><stop offset="0.95" stop-color="#010101"/></linearGradient><linearGradient id="linear-gradient-2" x1="415.18" y1="133.97" x2="439.51" y2="333.72" xlink:href="#linear-gradient"/><linearGradient id="linear-gradient-3" x1="218.86" y1="137.11" x2="268.09" y2="254.24" xlink:href="#linear-gradient"/><linearGradient id="linear-gradient-4" x1="213.28" y1="166.78" x2="255.45" y2="166.78" xlink:href="#linear-gradient"/><linearGradient id="linear-gradient-5" x1="319.18" y1="132.82" x2="338.42" y2="230.9" gradientTransform="translate(-41.19 132.24) rotate(-21.52)" xlink:href="#linear-gradient"/><linearGradient id="linear-gradient-6" x1="317.67" y1="137.34" x2="336.91" y2="235.43" gradientTransform="translate(-42.95 132.01) rotate(-21.52)" xlink:href="#linear-gradient"/><linearGradient id="linear-gradient-7" x1="283.56" y1="149.69" x2="287.33" y2="269.27" gradientTransform="translate(20.7 -29.88) rotate(6.24)" xlink:href="#linear-gradient"/><linearGradient id="linear-gradient-8" x1="284.46" y1="151.71" x2="288.23" y2="271.3" gradientTransform="translate(21.72 -29.94) rotate(6.24)" xlink:href="#linear-gradient"/><linearGradient id="linear-gradient-9" x1="44.06" y1="284.44" x2="210.05" y2="422.51" xlink:href="#linear-gradient"/><linearGradient id="linear-gradient-10" x1="525.52" y1="312.17" x2="505.15" y2="528.71" xlink:href="#linear-gradient"/><linearGradient id="linear-gradient-11" x1="470.38" y1="321.61" x2="333.81" y2="645.28" xlink:href="#linear-gradient"/><linearGradient id="linear-gradient-12" x1="501.63" y1="433.49" x2="268.49" y2="538.74" xlink:href="#linear-gradient"/><linearGradient id="linear-gradient-13" x1="420.65" y1="440.99" x2="505.86" y2="440.99" xlink:href="#linear-gradient"/><linearGradient id="linear-gradient-14" x1="101.23" y1="285.82" x2="229.12" y2="490.67" xlink:href="#linear-gradient"/><linearGradient id="linear-gradient-15" x1="66.95" y1="415.85" x2="199.93" y2="420.94" xlink:href="#linear-gradient"/><linearGradient id="linear-gradient-16" x1="126.9" y1="393.11" x2="280.82" y2="448.57" xlink:href="#linear-gradient"/><linearGradient id="linear-gradient-17" x1="285.18" y1="330.68" x2="488.89" y2="220.53" gradientUnits="userSpaceOnUse"><stop offset="0" stop-color="#fff" stop-opacity="0"/><stop offset="0.95" stop-color="#fff"/></linearGradient><linearGradient id="linear-gradient-18" x1="305.62" y1="339.41" x2="-281.27" y2="285.86" xlink:href="#linear-gradient"/><linearGradient id="linear-gradient-19" x1="237.05" y1="289.97" x2="304.97" y2="289.97" xlink:href="#linear-gradient-17"/><linearGradient id="linear-gradient-20" x1="324.51" y1="354.3" x2="376.32" y2="354.3" xlink:href="#linear-gradient-17"/><linearGradient id="linear-gradient-22" x1="350.17" y1="338.14" x2="352.43" y2="405.29" xlink:href="#linear-gradient-17"/><linearGradient id="linear-gradient-23" x1="244.3" y1="350.78" x2="251.85" y2="425.1" xlink:href="#linear-gradient-17"/><linearGradient id="linear-gradient-24" x1="293.07" y1="248.72" x2="384.37" y2="432.81" xlink:href="#linear-gradient"/><linearGradient id="linear-gradient-25" x1="275.84" y1="396.78" x2="650.82" y2="325.11" xlink:href="#linear-gradient"/><linearGradient id="linear-gradient-26" x1="259.51" y1="305.18" x2="147.85" y2="505.88" xlink:href="#linear-gradient"/><linearGradient id="linear-gradient-27" x1="423.83" y1="354.69" x2="491.48" y2="354.69" xlink:href="#linear-gradient"/><linearGradient id="linear-gradient-28" x1="32.72" y1="407.62" x2="103.09" y2="407.62" xlink:href="#linear-gradient"/><linearGradient id="linear-gradient-29" x1="140.22" y1="368.81" x2="158.32" y2="520.46" xlink:href="#linear-gradient"/><linearGradient id="linear-gradient-30" x1="106.59" y1="254.73" x2="129.92" y2="254.73" xlink:href="#linear-gradient"/><linearGradient id="linear-gradient-31" x1="152.74" y1="232.68" x2="164.89" y2="232.68" xlink:href="#linear-gradient"/><linearGradient id="linear-gradient-32" x1="193.68" y1="240.05" x2="211.04" y2="240.05" xlink:href="#linear-gradient"/><linearGradient id="linear-gradient-33" x1="239.23" y1="141.59" x2="267.9" y2="157.81" gradientTransform="translate(522.05 145.08) rotate(149.84)" xlink:href="#linear-gradient-17"/><linearGradient id="linear-gradient-34" x1="256.96" y1="109.24" x2="285.64" y2="129.8" gradientTransform="translate(540.11 68.5) rotate(148.04)" xlink:href="#linear-gradient"/><linearGradient id="linear-gradient-35" x1="465.11" y1="251.23" x2="419.84" y2="436.84" xlink:href="#linear-gradient"/><linearGradient id="linear-gradient-36" x1="205.96" y1="110.9" x2="196.63" y2="113.17" xlink:href="#linear-gradient"/><linearGradient id="linear-gradient-37" x1="197.73" y1="70.79" x2="206.22" y2="83.95" xlink:href="#linear-gradient"/><linearGradient id="linear-gradient-38" x1="211.65" y1="109" x2="71.88" y2="167.56" xlink:href="#linear-gradient"/><linearGradient id="linear-gradient-39" x1="154.05" y1="189.39" x2="282.69" y2="124.51" xlink:href="#linear-gradient"/><linearGradient id="linear-gradient-40" x1="200.27" y1="104" x2="159.71" y2="126.07" xlink:href="#linear-gradient"/><linearGradient id="linear-gradient-41" x1="183.08" y1="186.46" x2="238.91" y2="177.79" xlink:href="#linear-gradient"/><linearGradient id="linear-gradient-42" x1="255.82" y1="106.24" x2="270.81" y2="106.24" gradientTransform="translate(-15.67 159.05) rotate(-32.69)" xlink:href="#linear-gradient-17"/></defs><title>Recycle 1</title><path d="M536,420.78a131,131,0,0,0,20.42-103.54c-2.6-11.28-6.7-22.16-9.55-33.38-14.75-58.08,4.43-122.58-19-177.74-14.73-34.71-46.29-61.8-82.83-71.1-36.3-9.23-74.93-1.53-111.83-7.94-25.84-4.5-50-15.76-75.48-22S203.35-1.64,182,13.64c-26.16,18.75-32.71,54.45-51.12,80.84-16.47,23.61-41.9,39-65,56.2s-45.57,38.8-51.22,67C7.43,254.14,30.18,290.89,26.1,327.83c-1.76,15.93-8.47,31.06-9.77,47-2.54,31.24,16.58,61.31,42.3,79.22s57.17,25.52,88.16,30.21c54.13,8.19,109.09,8.54,163.82,8.87l78.41.48c32.18.2,48.11-13.27,75.89-23C493.49,460.66,518.19,446,536,420.78Z" transform="translate(-1.61 -1)" fill="#0dc07c" opacity="0.24" style="isolation:isolate"/><polygon points="322.19 180.15 366.32 133.75 420.65 180.15 322.19 180.15" fill="#0dc07c"/><polygon points="322.19 180.15 366.32 133.75 420.65 180.15 322.19 180.15" fill="url(#linear-gradient)"/><polygon points="248.91 178.17 261.36 154.4 329.26 153.84 340.01 177.6 248.91 178.17" fill="#0dc07c"/><polygon points="392.07 128.37 380.19 178.17 435.07 179.87 454.31 123.84 392.07 128.37" fill="#0dc07c"/><polygon points="392.07 128.37 380.19 178.17 435.07 179.87 454.31 123.84 392.07 128.37" fill="url(#linear-gradient-2)"/><circle cx="236.08" cy="178.07" r="37.82" fill="#0dc07c"/><circle cx="236.08" cy="178.07" r="37.82" fill="url(#linear-gradient-3)"/><path d="M217.71,173a18.93,18.93,0,0,1-4.05-7.5,11.43,11.43,0,0,1,.94-8.34,12.38,12.38,0,0,1,5.31-4.71,3.94,3.94,0,0,1,1.52-.49,4.66,4.66,0,0,1,1.75.37,53,53,0,0,0,15,2.76c2.91.11,5.88,0,8.7.74a3.56,3.56,0,0,1,1.9,1,4.13,4.13,0,0,1,.67,1.44q3.19,10.28,5.85,20.71a1.37,1.37,0,0,1-1.48,2.08q-12.45.45-24.9.28c-1.71,0-10.42.74-11.08-.74-.38-.86,1.43-2.33,1.63-3.1C220,175.77,218.81,174.34,217.71,173Z" transform="translate(-1.61 -1)" fill="url(#linear-gradient-4)"/><rect x="292.65" y="147.42" width="69.42" height="54.14" transform="translate(85.22 -108.92) rotate(21.52)" fill="#0dc07c"/><rect x="292.65" y="147.42" width="69.42" height="54.14" transform="translate(85.22 -108.92) rotate(21.52)" fill="url(#linear-gradient-5)"/><rect x="291.14" y="151.94" width="69.42" height="54.14" transform="translate(86.77 -108.05) rotate(21.52)" fill="url(#linear-gradient-6)"/><rect x="249.64" y="147.8" width="69.42" height="54.14" transform="translate(-18.93 30.95) rotate(-6.24)" fill="#0dc07c"/><rect x="249.64" y="147.8" width="69.42" height="54.14" transform="translate(-18.93 30.95) rotate(-6.24)" fill="url(#linear-gradient-7)"/><rect x="250.77" y="157.13" width="69.42" height="54.14" transform="translate(-19.94 31.13) rotate(-6.24)" fill="url(#linear-gradient-8)"/><path d="M223.32,128.74l-2.29-.17c0-.07.14-1.8.65-4.63l2.25.4C223.45,127,223.32,128.72,223.32,128.74Z" transform="translate(-1.61 -1)" fill="#0dc07c"/><path d="M226.08,115.64,223.9,115a69.48,69.48,0,0,1,3.36-8.64l2.07,1A67,67,0,0,0,226.08,115.64Zm62.16-1.28h0a11.52,11.52,0,0,1-5.25-1.27l1-2a9.3,9.3,0,0,0,4.21,1h0a10.67,10.67,0,0,0,3.7-.7l.8,2.14A12.85,12.85,0,0,1,288.24,114.36Zm85.73-3.1-2.25-.37a37,37,0,0,0,.5-6c0-.93,0-1.87-.12-2.81l2.28-.19c.09,1,.12,2,.12,3A38.2,38.2,0,0,1,374,111.26Zm-73.49-3.44-1.75-1.47a20.34,20.34,0,0,0,4-7.56l2.21.62A22.61,22.61,0,0,1,300.48,107.82Zm-24.22-1.68a22.32,22.32,0,0,1-2.45-9.21l2.28-.14a20.44,20.44,0,0,0,2.19,8.28Zm-42.51-6.62-1.9-1.29a51.14,51.14,0,0,1,5.92-7.2l1.63,1.62A47.21,47.21,0,0,0,233.75,99.52Zm136.5-6a33.43,33.43,0,0,0-4.06-7.79l1.87-1.31a35.23,35.23,0,0,1,4.34,8.31Zm-67.51-3a12,12,0,0,0-5.2-6.3l1.21-1.94a14.24,14.24,0,0,1,6.16,7.5ZM277,88.13l-2.21-.6a33.8,33.8,0,0,1,3.72-8.64l2,1.19A31.42,31.42,0,0,0,277,88.13ZM246.25,87,245,85.13a45.62,45.62,0,0,1,8.3-4.3l.83,2.14A43.09,43.09,0,0,0,246.25,87Zm43.15-5.78a89.73,89.73,0,0,0-8.9-1.34l.22-2.28c2.95.29,6,.75,9.13,1.37Zm-26.73-.73-.43-2.25a59.17,59.17,0,0,1,9.23-1l.07,2.29A57,57,0,0,0,262.67,80.53Zm97.61-1.39a47.3,47.3,0,0,0-7.19-5.23l1.19-2a50.33,50.33,0,0,1,7.52,5.48ZM286,73.26l-1.57-1.67a37,37,0,0,1,7.61-5.49l1.1,2A34.74,34.74,0,0,0,286,73.26Zm59.08-3.39a83.27,83.27,0,0,0-8.45-3.05l.67-2.19A86.26,86.26,0,0,1,346,67.76Zm-43.74-5-.61-2.21A48.74,48.74,0,0,1,309.94,61l.18,2.28A46.73,46.73,0,0,0,301.37,64.83Zm26.56-.23a72.64,72.64,0,0,0-8.88-1.26l.17-2.28a77.37,77.37,0,0,1,9.17,1.29Z" transform="translate(-1.61 -1)" fill="#0dc07c"/><path d="M368.79,124.81l-1.87-1.33a23.47,23.47,0,0,0,2.14-3.79l2.08,1A26.24,26.24,0,0,1,368.79,124.81Z" transform="translate(-1.61 -1)" fill="#0dc07c"/><path d="M57.69,249.31c-3.87,28.5-7.66,58.12,1,85.54,1.73,5.46,4,10.93,8.13,14.94s10.3,6.29,15.71,4.41c6.28-2.19,9.58-8.93,12-15.13,5.93-15.22,21.16-48.63,3.69-54.64C71.89,275.37,57.62,249.76,57.69,249.31Z" transform="translate(-1.61 -1)" fill="#0dc07c"/><path d="M57.69,249.31c-3.87,28.5-7.66,58.12,1,85.54,1.73,5.46,4,10.93,8.13,14.94s10.3,6.29,15.71,4.41c6.28-2.19,9.58-8.93,12-15.13,5.93-15.22,21.16-48.63,3.69-54.64C71.89,275.37,57.62,249.76,57.69,249.31Z" transform="translate(-1.61 -1)" fill="url(#linear-gradient-9)"/><path d="M508.5,352.8a94.69,94.69,0,0,0,21.28-48.09c2-15,.43-30.46,4.25-45.09.94-3.58,2.34-7.28,5.28-9.53,3.56-2.71,8.67-2.61,12.78-.84s7.43,5,10.54,8.18c2,2,4,4.45,3.69,7.23-.27,2.4-2.2,4.21-3.94,5.88-5.7,5.45-10.71,11.8-13.51,19.17-8,21,3.07,46.8-8.54,66-3,5-7.31,9-10.4,13.94-6.13,9.72-6.94,21.76-7.58,33.23q-.79,14.31-1.6,28.61c-.35,6.35-.73,12.81-2.91,18.78A32.75,32.75,0,0,1,504,467c-4.5,2.69-10,4.28-15,2.83-5.35-1.54-9.31-6.29-11.2-11.52s-2-10.92-1.83-16.47c.59-18,5.73-34.57,8.7-52.09C487.38,373.79,498.41,364.79,508.5,352.8Z" transform="translate(-1.61 -1)" fill="#0dc07c"/><path d="M509.25,351.3a94.86,94.86,0,0,0,21.29-48.1c2-15,.42-30.46,4.25-45.09.93-3.58,2.33-7.28,5.27-9.53,3.56-2.71,8.67-2.61,12.79-.84s7.42,5,10.54,8.19c1.94,2,4,4.44,3.68,7.22-.26,2.4-2.19,4.21-3.93,5.88-5.7,5.45-10.72,11.8-13.51,19.17-8,21,3.07,46.8-8.54,66-3,5-7.31,9-10.4,13.93-6.13,9.72-6.94,21.76-7.58,33.23q-.81,14.31-1.6,28.61c-.36,6.35-.73,12.81-2.91,18.78a32.77,32.77,0,0,1-13.82,16.73c-4.5,2.69-10,4.28-15,2.83-5.34-1.54-9.3-6.29-11.2-11.52s-2-10.92-1.82-16.47c.59-18,5.73-34.57,8.7-52.09C488.14,372.29,499.16,363.28,509.25,351.3Z" transform="translate(-1.61 -1)" fill="url(#linear-gradient-10)"/><path d="M508,352.13c3.91-24.17,1.3-48.86-1.32-73.2-31.8,6.9-64,19.29-85.12,44.08-12,14.11-19.62,31.43-24.91,49.16a225.68,225.68,0,0,0-8.51,44.16,9.17,9.17,0,0,0,.54,5.15,8.72,8.72,0,0,0,4,3.3C447.59,453.51,499.66,403.79,508,352.13Z" transform="translate(-1.61 -1)" fill="#0dc07c"/><path d="M508,352.13c3.91-24.17,1.3-48.86-1.32-73.2-31.8,6.9-64,19.29-85.12,44.08-12,14.11-19.62,31.43-24.91,49.16a225.68,225.68,0,0,0-8.51,44.16,9.17,9.17,0,0,0,.54,5.15,8.72,8.72,0,0,0,4,3.3C447.59,453.51,499.66,403.79,508,352.13Z" transform="translate(-1.61 -1)" fill="url(#linear-gradient-11)"/><path d="M489.43,397.89c25.86.57,50.24,11.84,72.83,24.46-13.91,21.88-29.47,44.07-52.29,56.37-30.57,16.48-68.62,11.88-100.82-1.12a5.67,5.67,0,0,1-3.16-2.26c-.7-1.37-.19-3,.33-4.46,6.7-18.48,12.83-36.31,27.08-50.17C448.75,405.79,467.75,397.41,489.43,397.89Z" transform="translate(-1.61 -1)" fill="#0dc07c"/><path d="M489.43,397.89c25.86.57,50.24,11.84,72.83,24.46-13.91,21.88-29.47,44.07-52.29,56.37-30.57,16.48-68.62,11.88-100.82-1.12a5.67,5.67,0,0,1-3.16-2.26c-.7-1.37-.19-3,.33-4.46,6.7-18.48,12.83-36.31,27.08-50.17C448.75,405.79,467.75,397.41,489.43,397.89Z" transform="translate(-1.61 -1)" fill="url(#linear-gradient-12)"/><path d="M448.46,443.5c8.25,1.18,16.53,3,24.84,2.32,12.66-1.06,24.39-8.12,32.56-17.85-5.81,9.18-12.23,18.89-22.27,23-9.89,4.08-21.1,1.86-31.66.09-10.85-1.82-21.13-2.25-31.09,2.92C418.31,439.88,441.05,442.44,448.46,443.5Z" transform="translate(-1.61 -1)" fill="url(#linear-gradient-13)"/><path d="M105.55,152.58c-11.92-7.84-30.3-7.8-38.45,3.91-7.91,11.38-2.81,27,3.49,39.35,6.83,13.42,14.84,26.3,20.26,40.35S99,266,94.72,280.4c-3.75,12.77-12.53,23.47-17.3,35.89a61.84,61.84,0,0,0,8.41,58.55c8.1,10.62,20,19.13,23.42,32.05,2.66,10.09-.53,20.75,0,31.17.86,17.06,12.2,32.7,27.29,40.69s33.38,8.84,49.86,4.36c2.85-.77,5.77-1.77,7.81-3.9,3.89-4.06,3.2-10.52,2.26-16.06q-12.78-75-25.57-150.06c-3.46-20.34-3.74-41.89-8.58-61.89-3.39-14-11.34-26.23-17.95-38.87C134,192.5,125.11,165.42,105.55,152.58Z" transform="translate(-1.61 -1)" fill="#0dc07c"/><path d="M105.55,152.58c-11.92-7.84-30.3-7.8-38.45,3.91-7.91,11.38-2.81,27,3.49,39.35,6.83,13.42,14.84,26.3,20.26,40.35S99,266,94.72,280.4c-3.75,12.77-12.53,23.47-17.3,35.89a61.84,61.84,0,0,0,8.41,58.55c8.1,10.62,20,19.13,23.42,32.05,2.66,10.09-.53,20.75,0,31.17.86,17.06,12.2,32.7,27.29,40.69s33.38,8.84,49.86,4.36c2.85-.77,5.77-1.77,7.81-3.9,3.89-4.06,3.2-10.52,2.26-16.06q-12.78-75-25.57-150.06c-3.46-20.34-3.74-41.89-8.58-61.89-3.39-14-11.34-26.23-17.95-38.87C134,192.5,125.11,165.42,105.55,152.58Z" transform="translate(-1.61 -1)" fill="url(#linear-gradient-14)"/><path d="M1.61,345.75A225.16,225.16,0,0,0,31.44,447.08c5.91,10.21,12.81,20.16,22.31,27.15C65.62,483,80.5,486.36,95,488.75c7.78,1.28,15.92,2.31,23.42-.1,10.72-3.45,18.33-13.62,21.06-24.55s1.22-22.48-1.67-33.36C122.23,371.91,63.43,328,1.61,345.75Z" transform="translate(-1.61 -1)" fill="#0dc07c"/><path d="M1.61,345.75A225.16,225.16,0,0,0,31.44,447.08c5.91,10.21,12.81,20.16,22.31,27.15C65.62,483,80.5,486.36,95,488.75c7.78,1.28,15.92,2.31,23.42-.1,10.72-3.45,18.33-13.62,21.06-24.55s1.22-22.48-1.67-33.36C122.23,371.91,63.43,328,1.61,345.75Z" transform="translate(-1.61 -1)" fill="url(#linear-gradient-15)"/><path d="M122.81,307.42a225.11,225.11,0,0,0-22.18,103.27c.31,11.8,1.62,23.83,6.63,34.51,6.26,13.34,17.71,23.44,29.33,32.48,6.22,4.84,12.88,9.63,20.63,11.09,11.06,2.09,22.61-3.21,30.22-11.5s11.81-19.18,14.47-30.12C216.29,388,185.58,321.39,122.81,307.42Z" transform="translate(-1.61 -1)" fill="#0dc07c"/><path d="M122.81,307.42a225.11,225.11,0,0,0-22.18,103.27c.31,11.8,1.62,23.83,6.63,34.51,6.26,13.34,17.71,23.44,29.33,32.48,6.22,4.84,12.88,9.63,20.63,11.09,11.06,2.09,22.61-3.21,30.22-11.5s11.81-19.18,14.47-30.12C216.29,388,185.58,321.39,122.81,307.42Z" transform="translate(-1.61 -1)" fill="url(#linear-gradient-16)"/><polygon points="450.92 179.28 415.83 488.26 171.4 488.26 166.13 430.58 165.41 422.79 162.8 394.21 162.07 386.41 157.85 340.14 143.1 179.28 450.92 179.28" fill="#0dc07c"/><polygon points="450.92 179.28 415.83 488.26 171.4 488.26 166.13 430.58 165.41 422.79 162.8 394.21 162.07 386.41 157.85 340.14 143.1 179.28 450.92 179.28" fill="url(#linear-gradient-17)"/><path d="M229.08,180.29l-5.47-1.41-.12,1.41-2.25,25.28H179.76l2.17-24.6-2.65-.68-5.47-1.41-.12,1.41L159.46,341.15l4.22,46.26,2.53-28.54h41.48l-2.53,28.54H163.68l.72,7.8h40.08L202,423.79H167l.72,7.8h33.48l-4.38,49.64,8.12,2L231.73,181ZM208.26,352.12,208.1,351H166.9l2.53-28.54h41.48Zm3.33-37.46H170.11l2.53-28.54h41.49Zm3.22-36.34H173.33l2.53-28.58h41.48ZM218,242H176.54l2.54-28.58h41.48Z" transform="translate(-1.61 -1)" fill="url(#linear-gradient-18)"/><path d="M223.24,178.9l-7,26.56H174.76L181.22,181l-7.78-2-79.22,301L102,482l13.54-51.46H157l-13,49.41,7.78,2.05L231,181ZM168.59,386.53H127.11l7.49-28.43h41.48Zm9.25-35.12v-1.09h-41.2l7.49-28.43h41.48Zm9.82-37.3H146.17l7.49-28.44h41.48Zm9.53-36.22H155.7l7.49-28.44h41.48Zm9.53-36.22H165.23l7.49-28.43H214.2ZM125.07,394.31h41.48l-7.49,28.44H117.58Z" transform="translate(-1.61 -1)" fill="#231f20"/><path d="M163.64,233.78a10.68,10.68,0,0,1,1.25,4.41,1.88,1.88,0,0,1-.32,1.14c-.56.66-1.61.42-2.41.09A32.68,32.68,0,0,1,155.8,236c-1.37-1-2.75-2.16-3-3.8-.39-2.32,1.76-7.35,4.71-6.42C160.61,226.73,162.43,231.08,163.64,233.78Z" transform="translate(-1.61 -1)" fill="#0dc07c"/><path d="M160.8,277.14" transform="translate(-1.61 -1)" fill="#fff"/><path d="M237.05,299.51l31.77,19s24-51.84,36.15-54.56c0,0-33-4.59-41.38-1.46S237.05,299.51,237.05,299.51Z" transform="translate(-1.61 -1)" fill="url(#linear-gradient-19)"/><path d="M287.77,287.66s4.31,0,6.13,3.62,5.43,11.15,5.43,11.15l-10.45,6.69,36.65,1.53L342.25,279l-10.45,3.9s-11.32-21.77-24.11-17.69C298.08,268.29,287.77,287.66,287.77,287.66Z" transform="translate(-1.61 -1)" fill="#0dc07c"/><path d="M356.36,316l-31.85,18.9s34.16,45.8,30.78,57.75c0,0,19.76-26.85,21-35.7S356.36,316,356.36,316Z" transform="translate(-1.61 -1)" fill="url(#linear-gradient-20)"/><path d="M342.64,366.22s-2.05,3.8-6.1,3.67-12.39-.53-12.39-.53L323.24,357l-18.79,31.5,19.87,29.76,1.54-11.05s24.54.4,27-12.78C354.77,384.5,342.64,366.22,342.64,366.22Z" transform="translate(-1.61 -1)" fill="#0dc07c"/><path d="M275.78,414.6,279,377.72s-57.13,1-64.87-8.72c0,0,10.28,31.72,16.75,37.87S275.78,414.6,275.78,414.6Z" transform="translate(-1.61 -1)" fill="#0dc07c"/><path d="M237.05,299.51l31.77,19s24-51.84,36.15-54.56c0,0-33-4.59-41.38-1.46S237.05,299.51,237.05,299.51Z" transform="translate(-1.61 -1)" fill="url(#linear-gradient-19)"/><path d="M356.36,316l-31.85,18.9s34.16,45.8,30.78,57.75c0,0,19.76-26.85,21-35.7S356.36,316,356.36,316Z" transform="translate(-1.61 -1)" fill="url(#linear-gradient-22)"/><path d="M275.78,414.6,279,377.72s-57.13,1-64.87-8.72c0,0,10.28,31.72,16.75,37.87S275.78,414.6,275.78,414.6Z" transform="translate(-1.61 -1)" fill="url(#linear-gradient-23)"/><path d="M243,374.14s-1.89-3.88.58-7.1,7.66-9.75,7.66-9.75l10.58,6.48-14.62-33.64-35.76-1.23,8.07,7.7s-14.64,19.68-5.39,29.41C221.06,373.32,243,374.14,243,374.14Z" transform="translate(-1.61 -1)" fill="#0dc07c"/><path d="M287.77,287.66s4.31,0,6.13,3.62,5.43,11.15,5.43,11.15l-10.45,6.69,36.65,1.53L342.25,279l-10.45,3.9s-11.32-21.77-24.11-17.69C298.08,268.29,287.77,287.66,287.77,287.66Z" transform="translate(-1.61 -1)" fill="#0dc07c"/><path d="M342.64,366.22s-2.05,3.8-6.1,3.67-12.39-.53-12.39-.53L323.24,357l-18.79,31.5,19.87,29.76,1.54-11.05s24.54.4,27-12.78C354.77,384.5,342.64,366.22,342.64,366.22Z" transform="translate(-1.61 -1)" fill="#0dc07c"/><path d="M243,374.14s-1.89-3.88.58-7.1,7.66-9.75,7.66-9.75l10.58,6.48-14.62-33.64-35.76-1.23,8.07,7.7s-14.64,19.68-5.39,29.41C221.06,373.32,243,374.14,243,374.14Z" transform="translate(-1.61 -1)" fill="#0dc07c"/><path d="M287.77,287.66s4.31,0,6.13,3.62,5.43,11.15,5.43,11.15l-10.45,6.69,36.65,1.53L342.25,279l-10.45,3.9s-11.32-21.77-24.11-17.69C298.08,268.29,287.77,287.66,287.77,287.66Z" transform="translate(-1.61 -1)" fill="url(#linear-gradient-24)"/><path d="M342.64,366.22s-2.05,3.8-6.1,3.67-12.39-.53-12.39-.53L323.24,357l-18.79,31.5,19.87,29.76,1.54-11.05s24.54.4,27-12.78C354.77,384.5,342.64,366.22,342.64,366.22Z" transform="translate(-1.61 -1)" fill="url(#linear-gradient-25)"/><path d="M243,374.14s-1.89-3.88.58-7.1,7.66-9.75,7.66-9.75l10.58,6.48-14.62-33.64-35.76-1.23,8.07,7.7s-14.64,19.68-5.39,29.41C221.06,373.32,243,374.14,243,374.14Z" transform="translate(-1.61 -1)" fill="url(#linear-gradient-26)"/><path d="M430.09,386.75c-.17-8.59,5.34-16.28,11.62-22.13s13.61-10.66,19-17.38c4.89-6.14,7.88-13.57,12.22-20.12s10.75-12.52,18.58-13.1c-5.69.25-10.45,4.62-13.26,9.56s-4.19,10.57-6.43,15.8a51.19,51.19,0,0,1-14.45,19.25c-4.9,4-10.54,7.12-15,11.56-6.93,6.81-10.64,16.14-14.17,25.18a10.72,10.72,0,0,1-2.38-14.66" transform="translate(-1.61 -1)" fill="url(#linear-gradient-27)"/><path d="M81.27,432.94c-4.37-1.06-8.94-.66-13.42-.25l-27.31,2.5a70.7,70.7,0,0,1,29.28-12.34A5.11,5.11,0,0,0,73,421.56c1.59-1.86-.24-4.61-2-6.31-14.14-13.65-29.15-27.08-38.24-44.51a40.42,40.42,0,0,1,21.16,16.78,39.47,39.47,0,0,1,6.71-21.16,54.11,54.11,0,0,1-2.49,19.9,7.1,7.1,0,0,0-.55,3.5A6.78,6.78,0,0,0,59.62,393l21.61,22.36c3-4.35,5.83-8.86,8.42-13.48-1.5,10.11-2.71,21.43,3.38,29.64,3.54,4.77,12.74,10.75,9.31,17.4C94.58,444,91.24,435.37,81.27,432.94Z" transform="translate(-1.61 -1)" fill="url(#linear-gradient-28)"/><path d="M132.86,377.93c3.43,14.68,7.73,29.25,14.41,42.76,4.31,8.73,9.67,17.21,11.19,26.82,1.23,7.78-2.28,9.74-5.87,3.54-3.87-6.7-5.33-16.88-8.17-24.26-3.11-8.07-6.41-16.11-8.68-24.48C133.56,394.24,134.67,385.71,132.86,377.93Z" transform="translate(-1.61 -1)" fill="url(#linear-gradient-29)"/><path d="M117.66,297.41c-.47-7.29.91-14.55,2-21.76,4.45-28.55,4.28-60.21-13.1-83.28,11.79,7,18.14,20.84,19.94,34.45s-.23,27.4-1.45,41.08-1.53,27.88,3.47,40.68c2.38,6.09,2,11.37-4.24,6.74C119.68,311.91,118,302.66,117.66,297.41Z" transform="translate(-1.61 -1)" fill="url(#linear-gradient-30)"/><path d="M195.2,232.07a5.88,5.88,0,0,0,1.82,4.18,2,2,0,0,0,2.51.2,2.43,2.43,0,0,0,.51-1.78,22.29,22.29,0,0,0-.35-3.91,4.51,4.51,0,0,0-1.7-3.22C194.47,225.41,195,230,195.2,232.07Z" transform="translate(-1.61 -1)" fill="#ffc6c8"/><path d="M159.24,227.88a1.49,1.49,0,0,1-.66.61,1.23,1.23,0,0,1-1.28-.59,4.31,4.31,0,0,1-.52-3.86c.55-1.72,2.39-4.67,4.05-2.41C162.27,223.59,160.35,226.3,159.24,227.88Z" transform="translate(-1.61 -1)" fill="#ffc6c8"/><path d="M195.3,234.34a5.42,5.42,0,0,1,2.83.55l8,3.16a9.48,9.48,0,0,1,4.07,2.46c1,1.25,1.22,3.3,0,4.35a4.52,4.52,0,0,1-2.72.84,41.9,41.9,0,0,1-7.76-.2,10.42,10.42,0,0,1-3.17-.76,4.18,4.18,0,0,1-2.23-2.28,6.21,6.21,0,0,1-.26-1.77C194,238.88,192.69,234.78,195.3,234.34Z" transform="translate(-1.61 -1)" fill="#0dc07c"/><path d="M163.64,233.78a10.68,10.68,0,0,1,1.25,4.41,1.88,1.88,0,0,1-.32,1.14c-.56.66-1.61.42-2.41.09A32.68,32.68,0,0,1,155.8,236c-1.37-1-2.75-2.16-3-3.8-.39-2.32,1.76-7.35,4.71-6.42C160.61,226.73,162.43,231.08,163.64,233.78Z" transform="translate(-1.61 -1)" fill="#0dc07c"/><path d="M163.64,233.78a10.68,10.68,0,0,1,1.25,4.41,1.88,1.88,0,0,1-.32,1.14c-.56.66-1.61.42-2.41.09A32.68,32.68,0,0,1,155.8,236c-1.37-1-2.75-2.16-3-3.8-.39-2.32,1.76-7.35,4.71-6.42C160.61,226.73,162.43,231.08,163.64,233.78Z" transform="translate(-1.61 -1)" fill="url(#linear-gradient-31)"/><path d="M195.3,234.34a5.42,5.42,0,0,1,2.83.55l8,3.16a9.48,9.48,0,0,1,4.07,2.46c1,1.25,1.22,3.3,0,4.35a4.52,4.52,0,0,1-2.72.84,41.9,41.9,0,0,1-7.76-.2,10.42,10.42,0,0,1-3.17-.76,4.18,4.18,0,0,1-2.23-2.28,6.21,6.21,0,0,1-.26-1.77C194,238.88,192.69,234.78,195.3,234.34Z" transform="translate(-1.61 -1)" fill="url(#linear-gradient-32)"/><rect x="225.21" y="111.74" width="32.54" height="62.24" rx="9.52" transform="translate(376.9 386.69) rotate(-149.84)" fill="#0dc07c"/><rect x="225.21" y="111.74" width="32.54" height="62.24" rx="9.52" transform="translate(376.9 386.69) rotate(-149.84)" fill="url(#linear-gradient-33)"/><rect x="254.59" y="106.03" width="11.32" height="11.13" transform="translate(420.36 343.03) rotate(-148.04)" fill="#0dc07c"/><rect x="254.59" y="106.03" width="11.32" height="11.13" transform="translate(420.36 343.03) rotate(-148.04)" fill="url(#linear-gradient-34)"/><path d="M475.73,289s12.44-31.13,8.48-52.06c0,0-33.95,5.09-40.17,14.14l-5.66,58.29Z" transform="translate(-1.61 -1)" fill="#0dc07c"/><path d="M475.73,289s12.44-31.13,8.48-52.06c0,0-33.95,5.09-40.17,14.14l-5.66,58.29Z" transform="translate(-1.61 -1)" fill="url(#linear-gradient-35)"/><path d="M204.48,110.93a5.92,5.92,0,0,1,1.64,3,5.64,5.64,0,0,1-.37,2.06,24,24,0,0,1-1.9,4.77,8,8,0,0,1-3.66,3.49,1.36,1.36,0,0,1-.74.13,1.42,1.42,0,0,1-.76-.67,73,73,0,0,1-6.92-12.7,6.22,6.22,0,0,1-.62-2.37,5.9,5.9,0,0,1,1.78-3.57,32.78,32.78,0,0,1,3.38-3.39c1.65-1.44,1.9-.85,2.84.88A56.33,56.33,0,0,0,204.48,110.93Z" transform="translate(-1.61 -1)" fill="#0dc07c"/><path d="M204.48,110.93a5.92,5.92,0,0,1,1.64,3,5.64,5.64,0,0,1-.37,2.06,24,24,0,0,1-1.9,4.77,8,8,0,0,1-3.66,3.49,1.36,1.36,0,0,1-.74.13,1.42,1.42,0,0,1-.76-.67,73,73,0,0,1-6.92-12.7,6.22,6.22,0,0,1-.62-2.37,5.9,5.9,0,0,1,1.78-3.57,32.78,32.78,0,0,1,3.38-3.39c1.65-1.44,1.9-.85,2.84.88A56.33,56.33,0,0,0,204.48,110.93Z" transform="translate(-1.61 -1)" fill="url(#linear-gradient-36)"/><path d="M208.32,85.3a1.74,1.74,0,0,1,0,1.15,1.59,1.59,0,0,1-.55.51l-2.95,2a4.16,4.16,0,0,1-5.38.32l-1.24,2.8a1.36,1.36,0,0,1-.46.64,1.3,1.3,0,0,1-.76.1,4,4,0,0,1-2.87-1.23c-.88-1.12-.54-2.73-.15-4.1l1.8-6.46a11,11,0,0,1,2-4.46A10.25,10.25,0,0,1,202,74c2.77-1.07,6.1-1.35,7,2.19C209.71,79.17,207.68,82.13,208.32,85.3Z" transform="translate(-1.61 -1)" fill="#ffc6c8"/><path d="M212.47,71.09a4.26,4.26,0,0,1-1.06,4.68,5.35,5.35,0,0,1-4.77,1.17c-.79-.18-1.53-.51-2.32-.67a2.76,2.76,0,0,0-2.3.4c-.94.78-.88,2.2-1.25,3.36a.59.59,0,0,1-.35.44c-.34.09-.55-.36-.55-.71s0-.78-.31-.93a2.82,2.82,0,0,0-1.71,3c.09.51.32,1.08,0,1.5s-.66.39-1,.58a4.12,4.12,0,0,0-1.3,1.68c-.37.61-1,1.21-1.7,1.07s-1-.94-1.26-1.63l-.73-2.28a4.74,4.74,0,0,1-.33-2.13c.23-1.41,1.7-2.49,1.6-3.92-.13-1.91,1-3.62,1.64-5.4s1.59-3.55,3.34-4.06c2-.58,3.92.8,5.89,1.41a27.71,27.71,0,0,0,4.38.66C209.85,69.57,211.87,69.74,212.47,71.09Z" transform="translate(-1.61 -1)" fill="#606161"/><path d="M212.47,71.09a4.26,4.26,0,0,1-1.06,4.68,5.35,5.35,0,0,1-4.77,1.17c-.79-.18-1.53-.51-2.32-.67a2.76,2.76,0,0,0-2.3.4c-.94.78-.88,2.2-1.25,3.36a.59.59,0,0,1-.35.44c-.34.09-.55-.36-.55-.71s0-.78-.31-.93a2.82,2.82,0,0,0-1.71,3c.09.51.32,1.08,0,1.5s-.66.39-1,.58a4.12,4.12,0,0,0-1.3,1.68c-.37.61-1,1.21-1.7,1.07s-1-.94-1.26-1.63l-.73-2.28a4.74,4.74,0,0,1-.33-2.13c.23-1.41,1.7-2.49,1.6-3.92-.13-1.91,1-3.62,1.64-5.4s1.59-3.55,3.34-4.06c2-.58,3.92.8,5.89,1.41a27.71,27.71,0,0,0,4.38.66C209.85,69.57,211.87,69.74,212.47,71.09Z" transform="translate(-1.61 -1)" fill="url(#linear-gradient-37)"/><path d="M194.78,71.35c.64-1.7,1.59-3.55,3.34-4.06" transform="translate(-1.61 -1)" fill="#606161"/><path d="M198.38,100.24q1.31,19.26,1.77,38.59a6,6,0,0,1-.29,2.42c-.67,1.6-2.55,2.28-4.26,2.55a39.47,39.47,0,0,1-10.63-.25,12.62,12.62,0,0,1-5.26-1.4,8.52,8.52,0,0,1-3.55-5.44,25.08,25.08,0,0,1-.33-6.65l.39-10.07c.26-6.54.55-13.24,3.11-19.27,2-4.84,5.87-9.28,10.91-11.11C196.66,87.27,198.06,95.55,198.38,100.24Z" transform="translate(-1.61 -1)" fill="#0dc07c"/><path d="M198.38,100.24q1.31,19.26,1.77,38.59a6,6,0,0,1-.29,2.42c-.67,1.6-2.55,2.28-4.26,2.55a39.47,39.47,0,0,1-10.63-.25,12.62,12.62,0,0,1-5.26-1.4,8.52,8.52,0,0,1-3.55-5.44,25.08,25.08,0,0,1-.33-6.65l.39-10.07c.26-6.54.55-13.24,3.11-19.27,2-4.84,5.87-9.28,10.91-11.11C196.66,87.27,198.06,95.55,198.38,100.24Z" transform="translate(-1.61 -1)" fill="url(#linear-gradient-38)"/><path d="M207.82,120.93a47.7,47.7,0,0,0,6.4,4.74,25,25,0,0,0,19.28,2.45,3.7,3.7,0,0,1,1.91-.22c.63.16,1.18.86.91,1.45a1.84,1.84,0,0,0-.15.36c-.08.43.47.66.89.74l2.78.49a2.57,2.57,0,0,1,1.78.84c.63.93-.18,2.18-1.11,2.8a6.63,6.63,0,0,1-5.41.86c-1.27-.36-2.4-1.09-3.63-1.54-2.86-1.07-6-.59-9.07-.62a27.47,27.47,0,0,1-11-2.39c-5.25-2.35-9.62-6.27-13.88-10.13-1.6-1.44-3.28-3-3.78-5.12a4.26,4.26,0,0,1,1-3.82c1.61-1.65,2.46-.45,3.74.84A124.87,124.87,0,0,0,207.82,120.93Z" transform="translate(-1.61 -1)" fill="#ffc6c8"/><path d="M212.73,127.73a65.3,65.3,0,0,0,6.74,7,22.83,22.83,0,0,0,8.39,4.72,3.17,3.17,0,0,1,1,.4,1.85,1.85,0,0,1,.71,1.29c.2,1.61-1.31,3.06-2.92,3.31A7.43,7.43,0,0,1,222,143.2a41.49,41.49,0,0,1-4.77-3.37,54.92,54.92,0,0,1-4.46-3.72c-1.29-1.24-2.45-2.59-3.61-3.94l-6.46-7.53c-1.27-1.47-2.75-3.32-2.14-5.4a2.35,2.35,0,0,1,3.6-1.54c1.81,1,2.81,3,4,4.53C209.61,124.13,211.17,125.94,212.73,127.73Z" transform="translate(-1.61 -1)" fill="#ffc6c8"/><path d="M158,221.8c3.5-12.85,10.86-24.26,16.25-36.44a27.18,27.18,0,0,0,1.88-5.3c1-4.6-.17-9.35-.86-14a71.16,71.16,0,0,1-.54-15.84c.35-4.41-.65-8.49,2.12-11.93,0,0,8.5-1.29,10.18,2.12,2,4.1,1.64,14.75,2.56,19.24,1.71,8.37,2.12,17.32-1.09,25.24-2.16,5.33-5.83,9.89-9.31,14.47a290.3,290.3,0,0,0-16.59,24.37c-.54.88-1.17,1.84-2.17,2.08S157.69,222.8,158,221.8Z" transform="translate(-1.61 -1)" fill="#606161"/><path d="M157.91,221.8c3.5-12.85,10.87-24.26,16.26-36.44a27.15,27.15,0,0,0,1.87-5.3c1-4.6-.17-9.35-.86-14a70.56,70.56,0,0,1-.53-15.84c.35-4.41-.65-8.49,2.11-11.93,0,0,8.5-1.29,10.19,2.12,2,4.1,1.63,14.75,2.55,19.24,1.72,8.37,2.13,17.32-1.08,25.24-2.17,5.33-5.83,9.89-9.31,14.47a288,288,0,0,0-16.6,24.37,4,4,0,0,1-2.17,2.08C159.34,226.05,157.64,222.8,157.91,221.8Z" transform="translate(-1.61 -1)" fill="url(#linear-gradient-39)"/><path d="M200.9,109.31a4,4,0,0,1-.8,5.35c-1.49,1.93-3.08,3.79-4.75,5.56a2,2,0,0,1-.79.61c-.79.26-1.54-.44-2.06-1.08-3-3.67-5.61-7.78-6.61-12.41a12.35,12.35,0,0,1,.58-7.9,7.69,7.69,0,0,1,3.71-3.67c2.09-.91,2.71-.33,3.86,1.43A110.17,110.17,0,0,1,200.9,109.31Z" transform="translate(-1.61 -1)" fill="#0dc07c"/><path d="M200.9,109.31a4,4,0,0,1-.8,5.35c-1.49,1.93-3.08,3.79-4.75,5.56a2,2,0,0,1-.79.61c-.79.26-1.54-.44-2.06-1.08-3-3.67-5.61-7.78-6.61-12.41a12.35,12.35,0,0,1,.58-7.9,7.69,7.69,0,0,1,3.71-3.67c2.09-.91,2.71-.33,3.86,1.43A110.17,110.17,0,0,1,200.9,109.31Z" transform="translate(-1.61 -1)" fill="url(#linear-gradient-40)"/><path d="M200.16,232.87a6,6,0,0,1-4.63-3.23,17.74,17.74,0,0,1-1.74-5.6l-3.31-17.25a110.13,110.13,0,0,1-2.42-17.87c-.1-4.26.3-8.58-.49-12.77a50.32,50.32,0,0,0-6.53-16c-5.65-9.59-4.27-21.65-2.25-22.18,1.21-.31,7.52,1.07,8.75,1.28a64.53,64.53,0,0,1,8.91,2.13c3.4,1.08,3.3,1.59,3.13,5.17-.34,6.89-.62,13.79-.78,20.69q-.5,20.88.19,41.76Q199.38,221,200.16,232.87Z" transform="translate(-1.61 -1)" fill="#606161"/><path d="M200.4,232.87a6.06,6.06,0,0,1-4.64-3.23A17.72,17.72,0,0,1,194,224l-3.31-17.25a108,108,0,0,1-2.42-17.87c-.1-4.26.29-8.58-.5-12.77a50.07,50.07,0,0,0-6.52-16C175.63,150.59,177,138.53,179,138c1.22-.31,7.52,1.07,8.76,1.28a65.23,65.23,0,0,1,8.91,2.13c3.4,1.08,3.3,1.59,3.12,5.17-.33,6.89-.61,13.79-.77,20.69q-.49,20.88.19,41.76Q199.62,221,200.4,232.87Z" transform="translate(-1.61 -1)" fill="url(#linear-gradient-41)"/><rect x="255.82" y="104.05" width="15" height="4.39" transform="translate(97.49 -126.39) rotate(32.69)" fill="#0dc07c"/><rect x="255.82" y="104.05" width="15" height="4.39" transform="translate(97.49 -126.39) rotate(32.69)" fill="url(#linear-gradient-42)"/></svg>