<svg version="1.2" baseProfile="tiny-ps" xmlns="http://www.w3.org/2000/svg" viewBox="0 0 1037 200" width="1037" height="200">
	<title>logo-ai</title>
	<style>
		tspan { white-space:pre }
		.shp0 { fill: #1a2342 } 
		.shp1 { fill: #179b6f } 
		.shp2 { fill: #1a2442 } 
		.shp3 { opacity: 0.49;fill: #00e68b } 
		.shp4 { opacity: 0.62;fill: #00e68b } 
		.shp5 { fill: #ffffff } 
		.shp6 { fill: #0e8466 } 
		.shp7 { fill: #1d9d70 } 
		.shp8 { fill: #2fb77b } 
	</style>
	<g id="Layer 1">
		<path id="&lt;Path&gt;" class="shp0" d="M1204 673L-162 673L-162 349L1204 349L1204 673Z" />
		<g id="&lt;Group&gt;">
			<g id="&lt;Group&gt;">
				<path id="&lt;Path&gt;" class="shp0" d="M918.94 60.38L918.94 160.62L890.82 160.62L890.82 82.27L850.04 82.27L850.04 160.62L821.92 160.62L821.92 82.27L803.03 82.27L803.03 60.38L821.92 60.38L821.92 53.08C821.92 23.03 837.37 5.86 865.92 5.86L872.58 5.86L872.58 32.04L868.5 32.04C854.55 32.04 850.04 39.56 850.04 50.07L850.04 60.38L918.94 60.38Z" />
				<path id="&lt;Path&gt;" class="shp1" d="M886.96 25.82C886.96 16.37 895.12 9.07 904.77 9.07C914.86 9.07 922.59 16.37 922.59 25.82C922.59 35.26 914.86 42.78 904.77 42.78C895.12 42.78 886.96 35.26 886.96 25.82Z" />
				<path id="&lt;Compound Path&gt;" class="shp0" d="M1038.09 160.62L1005.25 160.62L983.14 128.64L960.6 160.62L927.54 160.62L967.25 106.31L934.19 60.38L967.46 60.38L983.35 83.56L998.81 60.38L1031.86 60.38L998.81 106.31L1038.09 160.62Z" />
				<path id="&lt;Compound Path&gt;" class="shp0" d="M238.99 109.98C238.99 78.21 264.75 57.6 293.94 57.6C312.19 57.6 326.79 65.97 336.23 79.06L314.98 93.88C310.47 87.65 302.1 83.79 294.16 83.79C278.27 83.79 267.54 95.38 267.54 109.98C267.54 124.79 278.27 136.81 294.16 136.81C302.1 136.81 310.47 132.94 314.98 126.72L336.23 141.53C326.79 154.63 312.19 163 293.94 163C264.75 163 238.99 141.75 238.99 109.98Z" />
				<path id="&lt;Compound Path&gt;" class="shp0" d="M423.61 60.82L417.17 87.65C411.16 84.43 406.22 84 402.78 84C388.4 84 378.53 97.53 378.53 126.08L378.53 160.42L350.41 160.42L350.41 60.17L378.31 60.17L378.31 81.64C383.89 64.9 395.27 57.6 407.72 57.6C413.09 57.6 419.1 58.46 423.61 60.82Z" />
				<path id="&lt;Compound Path&gt;" fill-rule="evenodd" class="shp0" d="M530.37 119.42L455.02 119.42C458.03 131.23 467.47 138.1 480.78 138.1C491.09 138.1 500.96 133.37 507.19 126.29L523.5 142.82C514.06 155.48 496.67 163 479.07 163C448.15 163 425.62 141.32 425.62 110.41C425.62 77.99 450.3 57.6 478.85 57.6C507.62 57.6 531.01 77.99 531.01 108.69C531.01 111.48 530.8 114.91 530.37 119.42ZM502.68 101.18C501.82 89.37 492.16 81.86 479.49 81.86C467.9 81.86 458.03 87.65 455.02 101.18L502.68 101.18Z" />
				<path id="&lt;Compound Path&gt;" fill-rule="evenodd" class="shp0" d="M625.04 5.65L653.16 5.65L653.16 160.42L625.04 160.42L625.04 147.97C617.95 158.28 604 163 592.84 163C567.08 163 543.68 142.39 543.68 110.19C543.68 77.99 567.08 57.6 592.84 57.6C604.43 57.6 617.95 62.11 625.04 72.41L625.04 5.65ZM624.18 110.19C624.18 94.73 611.3 83.79 598.21 83.79C584.04 83.79 572.23 95.38 572.23 110.19C572.23 124.79 584.04 136.81 598.21 136.81C611.94 136.81 624.18 125.43 624.18 110.19Z" />
				<path id="&lt;Path&gt;" class="shp1" d="M671.63 25.61C671.63 16.17 679.79 8.87 689.44 8.87C699.32 8.87 707.26 16.17 707.26 25.61C707.26 35.06 699.32 42.57 689.44 42.57C679.79 42.57 671.63 35.06 671.63 25.61Z" />
				<path id="&lt;Path&gt;" class="shp0" d="M675.49 160.42L675.49 60.17L703.61 60.17L703.61 160.42L675.49 160.42Z" />
				<path id="&lt;Compound Path&gt;" class="shp0" d="M813.39 60.17L813.39 82.07L777.72 82.07L777.72 160.42L749.6 160.42L749.6 82.07L702.53 82.07L702.53 60.17L749.6 60.17L749.6 23.68L777.72 23.68L777.72 60.17L813.39 60.17Z" />
			</g>
			<g id="&lt;Group&gt;">
				<g id="&lt;Group&gt;">
					<path id="&lt;Path&gt;" class="shp2" d="M199.16 100.54C199.16 154.36 155.53 197.99 101.71 197.99C47.89 197.99 3.91 154.71 3.91 100.89C3.91 47.07 48.14 3 101.96 3C155.78 3 199.16 46.72 199.16 100.54Z" />
				</g>
				<path id="&lt;Path&gt;" class="shp3" d="M59.95 101.41C59.95 57.34 89.02 19.13 129.04 6.78C119.89 3.95 110.17 3 100.09 3C48.78 3 3.99 47.26 3.99 101.41C3.99 155.55 48.78 198 100.09 198C110.17 198 119.89 197.09 129.04 194.27C89.02 181.92 59.95 145.47 59.95 101.41Z" />
				<path id="&lt;Path&gt;" class="shp4" d="M4.44 101.41C4.44 130.07 35.87 145.84 72.53 145.84C94.92 145.84 137.68 115.7 160.47 115.7C182.32 115.7 193.21 130.85 185.96 148.1C177.53 168.14 145.81 198 101.96 198C47.81 198 3.92 155.55 3.92 101.41C3.92 47.26 47.81 3 101.96 3C150.5 3 182.32 38.05 187.78 57.16C190.91 68.12 188.28 88.39 160.47 88.39C141.33 88.39 91.96 59.09 71.39 59.09C36.9 59.09 4.44 76.08 4.44 101.41Z" />
			</g>
		</g>
		<g id="&lt;Group&gt;">
			<g id="&lt;Group&gt;">
				<path id="&lt;Path&gt;" class="shp5" d="M919.5 481.58L919.5 581.28L891.54 581.28L891.54 503.36L850.97 503.36L850.97 581.28L823.01 581.28L823.01 503.36L804.22 503.36L804.22 481.58L823.01 481.58L823.01 474.32C823.01 444.43 838.38 427.35 866.77 427.35L873.39 427.35L873.39 453.4L869.33 453.4C855.46 453.4 850.97 460.87 850.97 471.33L850.97 481.58L919.5 481.58Z" />
				<path id="&lt;Path&gt;" class="shp1" d="M887.69 447.21C887.69 437.82 895.81 430.56 905.41 430.56C915.45 430.56 923.13 437.82 923.13 447.21C923.13 456.6 915.45 464.07 905.41 464.07C895.81 464.07 887.69 456.6 887.69 447.21Z" />
				<path id="&lt;Compound Path&gt;" class="shp5" d="M1038 581.28L1005.34 581.28L983.35 549.47L960.93 581.28L928.05 581.28L967.55 527.27L934.67 481.58L967.76 481.58L983.56 504.64L998.93 481.58L1031.81 481.58L998.93 527.27L1038 581.28Z" />
				<path id="&lt;Compound Path&gt;" class="shp5" d="M243.25 530.91C243.25 499.31 268.87 478.82 297.9 478.82C316.05 478.82 330.57 487.14 339.96 500.17L318.82 514.9C314.34 508.71 306.01 504.86 298.12 504.86C282.32 504.86 271.64 516.39 271.64 530.91C271.64 545.64 282.32 557.6 298.12 557.6C306.01 557.6 314.34 553.75 318.82 547.56L339.96 562.29C330.57 575.32 316.05 583.64 297.9 583.64C268.87 583.64 243.25 562.51 243.25 530.91Z" />
				<path id="&lt;Compound Path&gt;" class="shp5" d="M426.86 482.02L420.45 508.71C414.48 505.5 409.57 505.08 406.15 505.08C391.85 505.08 382.02 518.53 382.02 546.92L382.02 581.08L354.06 581.08L354.06 481.38L381.81 481.38L381.81 502.73C387.36 486.08 398.68 478.82 411.06 478.82C416.4 478.82 422.38 479.67 426.86 482.02Z" />
				<path id="&lt;Compound Path&gt;" fill-rule="evenodd" class="shp5" d="M533.04 540.3L458.11 540.3C461.1 552.05 470.49 558.88 483.73 558.88C493.97 558.88 503.79 554.18 509.99 547.13L526.21 563.57C516.82 576.17 499.52 583.64 482.02 583.64C451.27 583.64 428.86 562.08 428.86 531.34C428.86 499.1 453.41 478.82 481.8 478.82C510.41 478.82 533.68 499.1 533.68 529.63C533.68 532.4 533.47 535.82 533.04 540.3ZM505.5 522.16C504.65 510.41 495.04 502.94 482.44 502.94C470.92 502.94 461.1 508.71 458.11 522.16L505.5 522.16Z" />
				<path id="&lt;Compound Path&gt;" fill-rule="evenodd" class="shp5" d="M627.2 427.15L655.17 427.15L655.17 581.08L627.2 581.08L627.2 568.7C620.15 578.95 606.27 583.64 595.17 583.64C569.55 583.64 546.28 563.15 546.28 531.12C546.28 499.1 569.55 478.82 595.17 478.82C606.7 478.82 620.15 483.3 627.2 493.55L627.2 427.15ZM626.34 531.12C626.34 515.75 613.53 504.86 600.51 504.86C586.42 504.86 574.68 516.39 574.68 531.12C574.68 545.64 586.42 557.6 600.51 557.6C614.17 557.6 626.34 546.28 626.34 531.12Z" />
				<path id="&lt;Path&gt;" class="shp1" d="M673.53 447.01C673.53 437.61 681.65 430.35 691.25 430.35C701.07 430.35 708.97 437.61 708.97 447.01C708.97 456.4 701.07 463.87 691.25 463.87C681.65 463.87 673.53 456.4 673.53 447.01Z" />
				<path id="&lt;Path&gt;" class="shp5" d="M677.38 581.08L677.38 481.38L705.34 481.38L705.34 581.08L677.38 581.08Z" />
				<path id="&lt;Compound Path&gt;" class="shp5" d="M814.53 481.38L814.53 503.15L779.05 503.15L779.05 581.08L751.08 581.08L751.08 503.15L704.27 503.15L704.27 481.38L751.08 481.38L751.08 445.08L779.05 445.08L779.05 481.38L814.53 481.38Z" />
			</g>
			<g id="&lt;Group&gt;">
				<path id="&lt;Path&gt;" class="shp5" d="M165.15 511.43C146.11 511.43 97.02 482.29 76.56 482.29C75.9 482.29 75.24 482.31 74.57 482.32C68.55 495.13 65.18 509.41 65.18 524.37C65.18 540.38 69.05 555.36 75.88 568.55C76.48 568.55 77.08 568.57 77.69 568.57C99.96 568.57 142.48 538.59 165.15 538.59C186.88 538.59 197.71 553.66 190.5 570.82C189.04 574.29 186.87 578.05 184.07 581.9C196.35 565.66 203.63 545.44 203.63 523.51C203.63 503.38 197.52 484.67 187.06 469.15C189.58 473.2 191.36 477.03 192.32 480.37C195.43 491.28 192.81 511.43 165.15 511.43Z" />
				<g id="&lt;Group&gt;">
					<path id="&lt;Path&gt;" class="shp6" d="M9.97 524.37C9.97 552.41 40.2 568.03 75.88 568.55C69.05 555.36 65.18 540.38 65.18 524.37C65.18 509.41 68.55 495.13 74.57 482.32C41.02 482.96 9.97 499.67 9.97 524.37Z" />
				</g>
				<g id="&lt;Group&gt;">
					<path id="&lt;Path&gt;" class="shp7" d="M74.57 482.32C75.24 482.31 75.9 482.29 76.56 482.29C97.02 482.29 146.11 511.43 165.15 511.43C192.81 511.43 195.43 491.28 192.32 480.37C191.36 477.03 189.58 473.2 187.06 469.15C175.4 451.88 158.34 438.57 138.27 431.7C138.1 431.64 137.92 431.58 137.75 431.52C136.54 431.11 135.32 430.73 134.09 430.37C134 430.35 133.9 430.32 133.81 430.29C107.64 438.39 86.18 457.63 74.57 482.32Z" />
				</g>
				<g id="&lt;Group&gt;">
					<path id="&lt;Path&gt;" class="shp7" d="M165.15 538.59C142.48 538.59 99.96 568.57 77.69 568.57C77.08 568.57 76.48 568.55 75.88 568.55C87.71 591.38 108.46 608.79 133.59 616.63C147.6 612.54 159.62 605.55 169.1 597.68C174.66 593 179.68 587.7 184.07 581.9C186.87 578.05 189.04 574.29 190.5 570.82C197.71 553.66 186.88 538.59 165.15 538.59Z" />
				</g>
				<g id="&lt;Group&gt;">
					<path id="&lt;Path&gt;" class="shp8" d="M75.88 568.55C40.2 568.03 9.97 552.41 9.97 524.37C9.97 499.67 41.02 482.96 74.57 482.32C86.18 457.63 107.64 438.39 133.81 430.29C133.65 430.24 133.49 430.19 133.33 430.15C132.67 429.96 132.01 429.78 131.34 429.61C130.84 429.48 130.34 429.36 129.84 429.24C128.96 429.02 128.08 428.82 127.2 428.63C126.6 428.51 126.01 428.39 125.41 428.27C124.72 428.14 124.04 428.01 123.35 427.89C122.54 427.76 121.72 427.63 120.9 427.51C120.46 427.45 120.03 427.38 119.59 427.33C118.75 427.22 117.89 427.13 117.03 427.04C113.43 426.7 109.76 426.54 106.05 426.52C85.51 426.71 66.4 433.35 50.7 444.5C50.67 444.52 50.65 444.54 50.62 444.56C50.56 444.6 50.49 444.65 50.42 444.7C26.02 462.49 9.53 491.61 9.53 524.37C9.53 530.12 10.04 535.74 11.01 541.18C18.64 583.08 53.45 615.4 96.42 619.89C96.56 619.91 96.7 619.93 96.84 619.94C97.43 620 98.01 620.05 98.6 620.1C98.84 620.11 99.07 620.14 99.31 620.16C100.11 620.22 100.92 620.27 101.72 620.31C101.72 620.31 101.72 620.31 101.72 620.31C103.27 620.39 104.82 620.42 106.39 620.43C108.37 620.41 110.35 620.37 112.31 620.27C112.85 620.24 113.4 620.2 113.94 620.16C114.03 620.16 114.12 620.15 114.22 620.15C116.59 619.96 118.93 619.7 121.25 619.35C121.35 619.33 121.46 619.32 121.56 619.3C122.26 619.19 122.95 619.08 123.64 618.96C124.48 618.81 125.32 618.65 126.15 618.48C126.43 618.42 126.72 618.36 127 618.3C129.24 617.81 131.44 617.26 133.59 616.63C108.46 608.79 87.71 591.38 75.88 568.55Z" />
				</g>
			</g>
		</g>
	</g>
</svg>