<svg id="Layer_1" data-name="Layer 1" xmlns="http://www.w3.org/2000/svg" xmlns:xlink="http://www.w3.org/1999/xlink" viewBox="0 0 417.86 428.11"><defs><linearGradient id="linear-gradient" x1="96.05" y1="237.52" x2="110.26" y2="237.52" gradientUnits="userSpaceOnUse"><stop offset="0" stop-color="#e5c6d6"/><stop offset="0.42" stop-color="#ead4d0"/><stop offset="1" stop-color="#f0e9cb"/></linearGradient><linearGradient id="linear-gradient-2" x1="373.3" y1="196.57" x2="732.29" y2="198.43" gradientUnits="userSpaceOnUse"><stop offset="0" stop-color="#010101" stop-opacity="0"/><stop offset="0.95" stop-color="#010101"/></linearGradient><linearGradient id="linear-gradient-3" x1="310.91" y1="172.36" x2="421.6" y2="410.28" xlink:href="#linear-gradient-2"/><linearGradient id="linear-gradient-4" x1="284.21" y1="188.57" x2="291.06" y2="188.57" xlink:href="#linear-gradient"/><linearGradient id="linear-gradient-5" x1="344.47" y1="182.76" x2="351.05" y2="182.76" xlink:href="#linear-gradient"/><linearGradient id="linear-gradient-6" x1="293.21" y1="249.44" x2="314.61" y2="249.44" gradientTransform="translate(-9.75 15.93) rotate(-7.81)" xlink:href="#linear-gradient"/><linearGradient id="linear-gradient-7" x1="322.87" y1="227.22" x2="332.89" y2="181.41" xlink:href="#linear-gradient-2"/><linearGradient id="linear-gradient-8" x1="177.37" y1="203.86" x2="180.51" y2="194.91" xlink:href="#linear-gradient-2"/><linearGradient id="linear-gradient-9" x1="176.13" y1="151.27" x2="206.33" y2="151.27" xlink:href="#linear-gradient"/><linearGradient id="linear-gradient-10" x1="130.28" y1="149.97" x2="149.22" y2="149.97" xlink:href="#linear-gradient"/><linearGradient id="linear-gradient-11" x1="143.96" y1="155.31" x2="141.48" y2="125.71" xlink:href="#linear-gradient-2"/><linearGradient id="linear-gradient-12" x1="131.45" y1="124.72" x2="167.13" y2="124.72" xlink:href="#linear-gradient"/><linearGradient id="linear-gradient-13" x1="284.17" y1="175.5" x2="346.72" y2="175.5" xlink:href="#linear-gradient"/><linearGradient id="linear-gradient-14" x1="241.82" y1="218.63" x2="297.54" y2="218.63" xlink:href="#linear-gradient"/><linearGradient id="linear-gradient-15" x1="366.76" y1="218.01" x2="399.98" y2="218.01" xlink:href="#linear-gradient"/><linearGradient id="linear-gradient-16" x1="267.93" y1="74.5" x2="281.08" y2="74.5" gradientTransform="translate(10.22 -15.94) rotate(11.13)" xlink:href="#linear-gradient"/><linearGradient id="linear-gradient-17" x1="266.2" y1="114.03" x2="264.88" y2="95.74" xlink:href="#linear-gradient-2"/><linearGradient id="linear-gradient-18" x1="277.29" y1="95.63" x2="279.63" y2="95.63" xlink:href="#linear-gradient"/><linearGradient id="linear-gradient-19" x1="253.99" y1="98.2" x2="258.09" y2="98.2" xlink:href="#linear-gradient"/><linearGradient id="linear-gradient-20" x1="254.65" y1="94.84" x2="278.35" y2="94.84" xlink:href="#linear-gradient"/><linearGradient id="linear-gradient-21" x1="282.97" y1="94.7" x2="290.82" y2="94.7" xlink:href="#linear-gradient"/><linearGradient id="linear-gradient-22" x1="268.46" y1="321.94" x2="266.5" y2="395.42" xlink:href="#linear-gradient-2"/><linearGradient id="linear-gradient-23" x1="322.02" y1="347.38" x2="460.75" y2="345.05" xlink:href="#linear-gradient-2"/><linearGradient id="linear-gradient-24" x1="141.78" y1="126.47" x2="150.7" y2="126.23" xlink:href="#linear-gradient-2"/><linearGradient id="linear-gradient-25" x1="100.72" y1="190.3" x2="152.33" y2="192.63" xlink:href="#linear-gradient-2"/><linearGradient id="linear-gradient-26" x1="139.72" y1="235.64" x2="273.18" y2="208.67" xlink:href="#linear-gradient-2"/><linearGradient id="linear-gradient-27" x1="118.75" y1="350.99" x2="139.59" y2="350.99" xlink:href="#linear-gradient-2"/><linearGradient id="linear-gradient-28" x1="224.82" y1="267.78" x2="223.58" y2="469.91" xlink:href="#linear-gradient-2"/><linearGradient id="linear-gradient-29" x1="299.69" y1="267.78" x2="298.45" y2="469.91" xlink:href="#linear-gradient-2"/></defs><title>Video Call</title><path d="M464.77,361.31c-8.29,19.06-25.56,31.85-44.65,41.09-6.25,3-12.69,5.65-19.06,8-18.43,6.8-37.62,12.29-57.28,13.08-20.87.82-41.58-3.64-62.46-5.06-31.81-2.11-63.65,2.94-95.52,2.51-27.35-.39-56-5.58-78.25-20.9a81.35,81.35,0,0,1-10.41-8.39c-23.18-22-31.81-55-37.75-86.35-4.36-23.18-7.86-46.77-6-70.28s9.44-47.17,25-64.94c11.93-13.61,27.78-23,42.51-33.56a311.24,311.24,0,0,0,66.46-64.44c14-18.4,26.49-38.85,45.58-52C253.05,6.3,278.35,2.27,302.76,2.21c16.18-.07,32.63,1.48,47.6,7.66,12.48,5.18,23.48,13.38,34.28,21.5Q403.08,45.14,421.44,59c7.53,5.62,18.16,11.36,23.19,19.66,13.41,22.13-9.05,45.05-11.7,66.42-2.14,17.51,8.13,33.79,15.46,49.84,15.66,34.32,18.6,72.9,21.31,110.56C471.08,324.29,472.31,344,464.77,361.31Z" transform="translate(-52.87 -2.2)" fill="#0dc07c" opacity="0.24" style="isolation:isolate"/><path d="M448.13,297.86c-1.59,15.26-9.19,29.1-14.64,43.44-8.15,21.4-6.8,42.84-13.37,61.1-6.25,3-12.69,5.65-19.06,8-18.43,6.8-37.62,12.29-57.28,13.08-20.87.82-41.58-3.64-62.46-5.06-31.81-2.11-63.65,2.94-95.52,2.51-27.35-.39-56-5.58-78.25-20.9,2.28-18.1,16.88-32.74,33.39-40.6s35.21-10.3,53.31-13.61,36.7-7.89,51.2-19.25c9.45-7.4,16.65-17.28,23.06-27.45,31.14-49.65,46.5-109.93,87.69-151.65,15.13-15.29,36-28.1,57.05-23.81,7.23,1.45,14.56,5.55,17,12.48,1.65,4.63.82,9.72.16,14.6a222.09,222.09,0,0,0,6.48,90.48C442.21,259.88,450.11,278.57,448.13,297.86Z" transform="translate(-52.87 -2.2)" fill="#0dc07c" opacity="0.44" style="isolation:isolate"/><path d="M146.46,426.19a5.13,5.13,0,0,0,1,2.89,4.74,4.74,0,0,0,3.2,1.15c7.25.56,14.42-2,20.72-5.64a11.85,11.85,0,0,0,4.13-3.42,4.53,4.53,0,0,0,.16-5.08,6,6,0,0,0-2.54-1.71,49.14,49.14,0,0,0-7.33-2.22c-4.79-1.18-9.89-2.71-14.86-2.73-4.39,0-5.27,3.29-5.28,7.17A73.21,73.21,0,0,0,146.46,426.19Z" transform="translate(-52.87 -2.2)" fill="#0dc07c"/><path d="M111.54,410.91a6.55,6.55,0,0,0-1.76,3.88,25.55,25.55,0,0,0,.57,11.37,5.37,5.37,0,0,0,.8,1.83c1,1.34,2.9,1.61,4.57,1.53,4.33-.21,8.4-2.06,12.18-4.16a21.29,21.29,0,0,0,5.87-4.32,8.71,8.71,0,0,0,2.38-6.69,3.58,3.58,0,0,0-.78-1.94,4.83,4.83,0,0,0-3.24-1.15c-4-.37-8-.67-12-1.05C117.39,410,113.89,408.82,111.54,410.91Z" transform="translate(-52.87 -2.2)" fill="#0dc07c"/><path d="M96.22,237.89c.59,12.17,2.82,24.4,8,35.43,1.39-2,1.67-4.48,1.81-6.88.38-6.63-.07-13.28-.21-19.92-.15-7.26,2.73-13.56,3.31-20.8.38-4.73,1.88-15.62.7-20.22-.79-3.06-6.45-2-9.46-3.48-4-1.9-3.23,5.39-3.41,7.84A230,230,0,0,0,96.22,237.89Z" transform="translate(-52.87 -2.2)" fill="url(#linear-gradient)"/><path d="M399.66,27.09H263.4a24,24,0,0,0-24,24V341.63a24,24,0,0,0,24,24H399.66a24,24,0,0,0,24-24V51.08A24,24,0,0,0,399.66,27.09Zm6,209.69v91.8H247.46V52.85a10,10,0,0,1,10-10h21V55.32h94.33V42.89h23a10,10,0,0,1,10,10v170.2A89.9,89.9,0,0,1,405.65,236.78Z" transform="translate(-52.87 -2.2)" fill="#0dc07c"/><path d="M399.59,27.09H263.33a24,24,0,0,0-24,24V341.63a24,24,0,0,0,24,24H399.59a24,24,0,0,0,24-24V51.08A24,24,0,0,0,399.59,27.09Zm6,209.69v91.8H247.38V52.85a10,10,0,0,1,10-10h21V55.32h94.32V42.89h23a10,10,0,0,1,10,10v170.2A89.9,89.9,0,0,1,405.57,236.78Z" transform="translate(-52.87 -2.2)" fill="url(#linear-gradient-2)"/><path d="M169,353a343.62,343.62,0,0,1-10.9,45.32,8.87,8.87,0,0,1-1.52,3.21c-2,2.37-5.74,2.08-8.82,1.55a2.78,2.78,0,0,1-1.78-.73,3,3,0,0,1-.5-1.85c-.76-17.6,1-35.24.7-52.88s2-27.88-6.54-43.34c-4.4,35.58-3.9,64.94-16.09,98.63v0a4,4,0,0,1-4.75,3.3l-6.87.1a2.86,2.86,0,0,1-1.66-.36c-.76-.57-.69-1.69-.56-2.61,3.4-24.08,2.31-48.53,1.19-72.8-.3-6.74-.59-13.45-.92-20.15-.5-10.94-1-21.9-2.88-32.67-.76-4.52-1.81-9.08-1.32-13.64s2.88-9.25,7.07-11.07a17.86,17.86,0,0,1,6.47-1.15c13.38-.66,27.35-.17,40.53,2.57,9.38,1.95,12.45,6.51,13.25,15.86C175.39,297.8,173.58,325.94,169,353Z" transform="translate(-52.87 -2.2)" fill="#606161"/><path d="M394,27.09H257.75a24,24,0,0,0-24,24V341.63a24,24,0,0,0,24,24H394a24,24,0,0,0,23.95-24V51.08A24,24,0,0,0,394,27.09Zm6,209.69v91.8H241.8V52.85a10,10,0,0,1,10-10h21V55.32h94.32V42.89h23a10,10,0,0,1,10,10v170.2A89.9,89.9,0,0,1,400,236.78Z" transform="translate(-52.87 -2.2)" fill="#0dc07c"/><path d="M400,53.47V329.21H241.82V53.47a9.94,9.94,0,0,1,9.94-10h21V56h94.34V43.49h23A10,10,0,0,1,400,53.47Z" transform="translate(-52.87 -2.2)" fill="#fff"/><path d="M377.63,234.28a155.68,155.68,0,0,1-6.19,31.57v0a56.19,56.19,0,0,1-2.42,6.89,20.83,20.83,0,0,1-3.12,5.17c-5.44,6.6-15.3,8.14-23.4,5.3-.67-.25-1.33-.52-2-.82-8.37-3.87-14.27-11.85-17.8-20.41-1.46-3.54-2.6-7.29-4.78-10.43-4.6-6.74-12.91-9.65-20.41-12.82-.42-.18-.82-.36-1.21-.55-7.5-3.35-10.89-7-12.15-15.72s.15-17.6-2-26.15c-2.12-8.29-7.53-15.45-9.46-23.77s-.16-17.47,4.11-25,10.73-13.64,18-18.29a43.39,43.39,0,0,1,12.61-5.81c9.22-2.33,19.2-.3,27.69,4,11.37,5.75,20.71,15.85,24.43,28,2.63,8.59,2.48,17.87,5.32,26.4,2,6,5.33,11.3,7.77,17.08a66.65,66.65,0,0,1,5,21.19A89.56,89.56,0,0,1,377.63,234.28Z" transform="translate(-52.87 -2.2)" fill="#e08142"/><path d="M351.6,184c0,4.19-.8,8.38-.36,12.54.52,5,2.83,9.72,4.34,14.58s2.13,10.44-.53,14.77a18.47,18.47,0,0,1-5.68,5.41c-8.62,5.84-19.84,9.18-29.52,5.36-2.94-1.17-5.61-2.94-8.52-4.21s-5.91-2-8.53-3.68c-4.89-3.1-7.47-8.82-8.85-14.44s-1.81-11.48-3.75-16.93c-2.33-6.53-6.83-12.82-5.83-19.68.81-5.59,5.32-10.13,10.52-12.34s11-2.45,16.66-2.22a81,81,0,0,1,28.74,6.4C347.63,172.67,351.59,174.92,351.6,184Z" transform="translate(-52.87 -2.2)" fill="url(#linear-gradient-3)"/><path d="M285.53,183.37a3,3,0,0,0-1.32,2.56,7.39,7.39,0,0,0,.73,2.9,9.59,9.59,0,0,0,3.66,4.82,1.79,1.79,0,0,0,2.06.06,1.88,1.88,0,0,0,.39-1.48C290.94,190.23,288.73,181.55,285.53,183.37Z" transform="translate(-52.87 -2.2)" fill="url(#linear-gradient-4)"/><path d="M350.87,179a11.77,11.77,0,0,1-.3,5.47,7.54,7.54,0,0,1-3.33,4.26,2.22,2.22,0,0,1-1,.32,1.64,1.64,0,0,1-1.33-1,4.14,4.14,0,0,1-.34-1.68c-.11-2.25-.32-5.73,1-7.75C347.1,176.14,350.3,175.4,350.87,179Z" transform="translate(-52.87 -2.2)" fill="url(#linear-gradient-5)"/><path d="M307.44,226.41a67.72,67.72,0,0,1,28.64-5.84,39.63,39.63,0,0,1,9.4,1.13,28.48,28.48,0,0,1,13.29,7.78,43.24,43.24,0,0,1,5.87,8,45,45,0,0,1,4.2,8.74c1,3.06,2.35,6.27,1.89,9.45-6.09,41.41-1,63-2.41,74.36-26.33-1-55,.17-81.35-1a3.51,3.51,0,0,1-2.46-.74c-.6-.61.13-6.78.12-7.64-.12-10.15,3-20,4.26-30.09,1.45-11.28.66-22.77,2.14-34S297.05,231,307.44,226.41Z" transform="translate(-52.87 -2.2)" fill="#0dc07c"/><path d="M316.3,224.89a14.33,14.33,0,0,0-.77,4.78,5.46,5.46,0,0,0,3.06,4.3,7.94,7.94,0,0,0,5,.3,9.66,9.66,0,0,0,2.85-1,14.67,14.67,0,0,0,3.44-3,19.27,19.27,0,0,0,3.28-4.31,14.85,14.85,0,0,0,1.27-4.34,34.84,34.84,0,0,0,.19-10,3.47,3.47,0,0,0-1.22-2.65,3.54,3.54,0,0,0-2.39-.25c-3.93.52-8,1.36-11,4-.92.81-1.87,1.63-2.76,2.46a2,2,0,0,0-.59,2.07A22.37,22.37,0,0,1,316.3,224.89Z" transform="translate(-52.87 -2.2)" fill="url(#linear-gradient-6)"/><path d="M334.63,211.54s-6.39,15.21-15.93,13.07l-2.15-1.08.36-7.16Z" transform="translate(-52.87 -2.2)" opacity="0.5" fill="url(#linear-gradient-7)"/><path d="M193.3,182.59a76.42,76.42,0,0,1-3.47,13.29A11.19,11.19,0,0,1,176.54,203c-4.53-1.12-9.08-2.2-11.16-2.62h0c-2,0,.2,31.61,1,37,1.16,8.36,7.2,21.67,5,23.72-4.83,4.42-10.24,8.65-16.25,10.93a24.86,24.86,0,0,1-8.86,1.82c-8.45.13-16.31-4.4-23.65-8.06-4-2-8.06-4.1-12-6.38a7.4,7.4,0,0,1-3-2.71,10,10,0,0,1-.86-4.09c-.53-9.51-.66-19-.46-28.54.1-4.49,1.06-9.48.59-13.91-.39-3.63-4.82-3.17-7.56-5.41-.76-.6-3.57-.9-3.93-1.75a3.88,3.88,0,0,1-.26-1.26c-.27-4.49,3.07-11.53,3.79-16,.93-5.78,1.62-12,4.5-17.34,3.13-5.82,8.75-10,15-12.36s25.37-.7,29,1.42c24,14,45,20.09,45.61,21.18A6.17,6.17,0,0,1,193.3,182.59Z" transform="translate(-52.87 -2.2)" fill="#fff"/><path d="M176.47,189s-1.55,9.3-.47,11.31,6.05,2.33,8.37.62S176.47,189,176.47,189Z" transform="translate(-52.87 -2.2)" opacity="0.5" fill="url(#linear-gradient-8)"/><path d="M186.23,176.82c-1.77,3-7.13,3.29-8.44,6.48a26.9,26.9,0,0,0-1.65,9.47A9.18,9.18,0,0,0,177,197c1.07,2.09,3.57,3,5.84,3.54a31,31,0,0,0,10.56,1.18,13.91,13.91,0,0,0,9.38-4.52c2.8-3.36,3.29-8,3.45-12.4a133.35,133.35,0,0,0-2.58-31.33c-.92-4.55-2.08-9.09-2.17-13.73-.12-6,1.58-12,2-18s-.67-12.69-5.23-16.65a25,25,0,0,0-6.44-3.68c-1.48-.66-3.36-1.27-4.58-.21a3.59,3.59,0,0,0-1,1.69c-1.47,4.62.23,9.68-.57,14.46a3.1,3.1,0,0,1-1.49,2.51,13.46,13.46,0,0,1-1.92.29,3.14,3.14,0,0,0-2,3.5,8.59,8.59,0,0,0,1.94,3.91c2.14,2.91,5.64,5.72,6.44,9.2.94,4.1.58,9.14.52,13.33C189.11,158.62,190.65,169.45,186.23,176.82Z" transform="translate(-52.87 -2.2)" fill="url(#linear-gradient-9)"/><path d="M147.1,402.31c-.07,2.64-.06,5.29,0,7.93a2.69,2.69,0,0,0,.61,2,2.65,2.65,0,0,0,1.48.52c1.79.25,3.58.43,5.38.55a2.21,2.21,0,0,0,.89-.06,1.77,1.77,0,0,0,.5-.32,5.65,5.65,0,0,0,1.82-3.47,16.63,16.63,0,0,0,0-4,24,24,0,0,0-1-6.21,1.1,1.1,0,0,0-.37-.61,1.12,1.12,0,0,0-.59-.17,22.88,22.88,0,0,0-6.66.25C147.23,399.11,147.16,400.28,147.1,402.31Z" transform="translate(-52.87 -2.2)" fill="#606161"/><path d="M111,410.61a2.51,2.51,0,0,0,.6,2.42,2.55,2.55,0,0,0,1.55.32l5.15-.07a2.6,2.6,0,0,0,2.22-.76,2.54,2.54,0,0,0,.3-1.39c.07-2.69.83-6.39.22-9-.39-1.66-.27-1.46-2.13-1.65a9.92,9.92,0,0,0-3.52.09C111.73,401.61,111.42,407.48,111,410.61Z" transform="translate(-52.87 -2.2)" fill="#606161"/><path d="M149,157.56a3.54,3.54,0,0,1,.17,1.73,3.07,3.07,0,0,1-2.14,1.8,13.93,13.93,0,0,1-8.05.57c-2.66-.65-7.25-4-8.7-6.31a53.37,53.37,0,0,0,.11-6.27,35.6,35.6,0,0,1,.07-6,6.25,6.25,0,0,1,1.7-4.14c2-1.73,5-.84,7.45.14,2.25.9,4.68,2,5.77,4.13,1,1.94,2.33,4.08,2.74,6.08C148.68,152,148.3,154.8,149,157.56Z" transform="translate(-52.87 -2.2)" fill="url(#linear-gradient-10)"/><path d="M137.87,143.26s7.44,11.63,10.39,12.4l.15-7.75Z" transform="translate(-52.87 -2.2)" opacity="0.5" fill="url(#linear-gradient-11)"/><path d="M166.87,118.09a28.88,28.88,0,0,1,.11,6.83,49.15,49.15,0,0,1-1.92,12.25,18,18,0,0,1-7.17,9.85,15.59,15.59,0,0,1-14.66.5,22,22,0,0,1-11.53-22.43c.63-3.74,2.42-7.16,4.31-10.45,2.61-4.54,5.59-9.09,10-11.89,4-2.51,11-3.85,14.63,0C163.85,106,166.1,113.78,166.87,118.09Z" transform="translate(-52.87 -2.2)" fill="url(#linear-gradient-12)"/><path d="M155.63,81.2a16.61,16.61,0,0,1,11.3,9.67,12.61,12.61,0,0,1,.9,6.88,18.88,18.88,0,0,1-2.18,5.52c-1.31,2.45-14.76,3.88-16.08,17.29,0,.34-2.34,7.14-2.55,7-1.33-1-.18-5.37-1.24-6.66a4.18,4.18,0,0,0-5.56-.42,6.24,6.24,0,0,0-2.2,5.47c.16,2,4.23,6.14,2.72,8.43-.88,1.32-3.4,7.52-4.83,8.2-2,.95-4.48.21-6.37-1a20.45,20.45,0,0,1-5-4.8c-5.09-6.56-7.92-15-7-23.26.37-3.12,1.72-6.66,4.76-7.51a1.87,1.87,0,0,0,.71-.29,1.63,1.63,0,0,0,.39-1.18A23.29,23.29,0,0,1,134.8,86.26C140.41,82.84,149.16,79.64,155.63,81.2Z" transform="translate(-52.87 -2.2)" fill="#606161"/><path d="M290.81,194.73a33.17,33.17,0,0,0,3.41,8.25,25.88,25.88,0,0,0,6.64,6.6c6.55,4.81,14.65,8.31,22.66,7,8.38-1.39,15.23-8,18.83-15.65s4.39-16.4,4.37-24.89a52.21,52.21,0,0,0-1.52-13.94c-2.89-10.42-11.06-18.85-20.69-23.75a36,36,0,0,0-14.84-4.18A22.91,22.91,0,0,0,295,138.45C277.3,151.9,285.36,177.19,290.81,194.73Z" transform="translate(-52.87 -2.2)" fill="url(#linear-gradient-13)"/><path d="M289.38,151.17a5.77,5.77,0,0,1,3.49.39c2.86,1.15,5,3.53,7.1,5.78,5.2,5.61,11.06,11.12,18.43,13.14,8.23,2.26,17.12-.17,25.45,1.64a9.33,9.33,0,0,1,3.27,1.23c1.2.8,2.07,2,3.23,2.88s2.89,1.29,4,.35a4,4,0,0,0,1-3.28c-.22-5.3-2.25-10.34-4.31-15.23-2.95-7-6.17-14.09-11.62-19.35C333.1,132.64,324.94,127,316.2,127l-17.88,3.41c-5.79,3-9.77,8.65-14.52,13.14a29.12,29.12,0,0,0-4.64,4.91,18,18,0,0,0-2.43,8.63c-.13,1.74-.29,4.67,1.51,5.71,1.45.84,3.18-.15,4.15-1.28C284.93,158.52,284.88,152.31,289.38,151.17Z" transform="translate(-52.87 -2.2)" fill="#e08142"/><path d="M297.54,241.78a80.86,80.86,0,0,1-5.28,15.32c-2.28,4.53-8.53,18.17-13.05,20.42-4.86,2.37-23.29,7.06-27.32,7.79a18.75,18.75,0,0,1-10.07-1.15v-77l1.88-9.31a19.76,19.76,0,0,0,.56-5.72,22.74,22.74,0,0,0-1.22-4.89,36.83,36.83,0,0,1-1.22-5.08V165.24c.23-1.18.49-2.37.82-3.56.93,2.28,1.89,4.56,2.81,6.87a48.61,48.61,0,0,1,2.61-15.39A44.72,44.72,0,0,1,251,163.69a47.09,47.09,0,0,1,3-10.14c.33-.82.93-1.75,1.79-1.65s1.28,1.19,1.42,2.11c.53,3.24,1.09,6.48,1.62,9.72.72-3.51,1.45-7,2.14-10.51.13-.59.37-1.32,1-1.48.92-.3,1.52,1,1.65,2a92.12,92.12,0,0,1,0,23.52c4.42-.2,5.15-8.1,9.54-8.33.2,8.75-4.12,18.47-11.16,23.72Q258.43,209.33,255,226c-1.91,9.32-3.86,19-2.08,28.31a6.7,6.7,0,0,0,1.59,3.57c2,2,5.38.92,8-.27Q280,249.71,297.54,241.78Z" transform="translate(-52.87 -2.2)" fill="url(#linear-gradient-14)"/><path d="M278.35,243.62a92.74,92.74,0,0,0-9.86,9.36,14.39,14.39,0,0,0-3,4c-1.2,2.74-.58,5.91.21,8.79a85.73,85.73,0,0,0,5.93,15.5,5.23,5.23,0,0,0,1.56,2.11c1.51,1,3.55.31,5.22-.45l11.23-5.06a31.38,31.38,0,0,0,4.61-2.38,23.9,23.9,0,0,0,7.41-8.66,44.72,44.72,0,0,0,4.5-30.58c-.41-2-1.59-6.5-4.13-6.75-2-.2-6.21,3.6-8,4.61C288.74,237.11,283.21,239.85,278.35,243.62Z" transform="translate(-52.87 -2.2)" fill="#0dc07c"/><path d="M394.86,273.88a10.44,10.44,0,0,0,5.12,6.4V155.74c-10.07,4-30,57.59-32.55,68.12-3.6,15,8.32,3.81,11.51,18.14C382.87,259.65,390.65,256.27,394.86,273.88Z" transform="translate(-52.87 -2.2)" fill="url(#linear-gradient-15)"/><path d="M364.41,207.36c2.87-3.59,6.1-7.84,10.54-6.67a56.22,56.22,0,0,0,3,35.1c2.43,5.64,5.78,12.25,2.52,17.46-1.19,1.9-5.37,1.68-7.24,2.93-3,2-4.18,5.67-7.8,5.14s-6.4-3.69-8.74-6.61c-5.77-7.21-22.41-24-20.62-34.14C336.08,220.57,354.18,220.14,364.41,207.36Z" transform="translate(-52.87 -2.2)" fill="#0dc07c"/><rect x="195.75" y="67.74" width="41.85" height="56.03" fill="#0dc07c" opacity="0.24" style="isolation:isolate"/><path d="M249.37,115.46s-.46,7.31-.23,9.94c13.61-.3,27,.16,40.62-.13l-.09-6.06a2.14,2.14,0,0,0-1.21-2.31c-3.2-2.08-6.46-4.19-10.11-5.29a40.09,40.09,0,0,0-8.93-1.28c-3.25-.22-7-1-10.18-.26S252.07,113.48,249.37,115.46Z" transform="translate(-52.87 -2.2)" fill="#fff"/><path d="M260.64,108.52c-.22,1.34-.79,2.64-.67,4a5.78,5.78,0,0,0,2.88,4.15,10.94,10.94,0,0,0,5.36,1.47,3.16,3.16,0,0,0,1.41-.18,2,2,0,0,0,1-2.06c-.07-.8-.42-1.58-.57-2.39-.49-2.66,1.22-5.45-.08-7.93a6.3,6.3,0,0,0-3.54-2.72,16.66,16.66,0,0,0-4.66-.72c-2-.09-2.21.77-1.64,2.22A8,8,0,0,1,260.64,108.52Z" transform="translate(-52.87 -2.2)" fill="url(#linear-gradient-16)"/><path d="M260.71,106.16s1.1,3.84,4.07,5.35a8.82,8.82,0,0,0,5.17,1.1s.23-3.25.76-4S260.71,106.16,260.71,106.16Z" transform="translate(-52.87 -2.2)" opacity="0.5" fill="url(#linear-gradient-17)"/><path d="M278.53,93.24a.84.84,0,0,1,.77.19,1.34,1.34,0,0,1,.32,1.07,6.78,6.78,0,0,1-.7,2.47c-.19.44-.45.92-.92,1a.53.53,0,0,1-.41,0c-.31-.16-.32-.59-.29-.94l.16-2.13A2,2,0,0,1,278.53,93.24Z" transform="translate(-52.87 -2.2)" fill="url(#linear-gradient-18)"/><path d="M257.48,97.18a5,5,0,0,0-1.13-1.06,1.71,1.71,0,0,0-1.5-.2,1.61,1.61,0,0,0-.82,1.83,3.9,3.9,0,0,0,1.12,1.83,3.35,3.35,0,0,0,1.17.88,1.35,1.35,0,0,0,1.4-.16,1.61,1.61,0,0,0,.2-1.79,9.71,9.71,0,0,1-.73-1.77" transform="translate(-52.87 -2.2)" fill="url(#linear-gradient-19)"/><path d="M262,107.58a11.29,11.29,0,0,0,9.81,1.66c5.52-1.74,6.93-17,6.45-20.29s-1.14-6.35-4-7.93c-3.24-1.78-7.24-1-10.83-.08-2.85.71-6,1.64-7.55,4.11-2,3-1.19,7.87,0,11.14C257.15,100.06,258.54,105.05,262,107.58Z" transform="translate(-52.87 -2.2)" fill="url(#linear-gradient-20)"/><path d="M251.59,90.16a17.37,17.37,0,0,1-.52-3.73,2.58,2.58,0,0,1,.31-1.58c.53-.78,1.65-.82,2.6-.78a10.72,10.72,0,0,1,.72-4.28c1-2.39,3.52-3.8,5.81-4.76a22.15,22.15,0,0,1,7.79-1.59c2.43-.08,5,.09,7.06,1.36a4.41,4.41,0,0,1,1.83,2,11.79,11.79,0,0,1,.44,2.06c.36,1.74.82,3.24,1.14,5,.74,4.12-.43,11.17-.7,11.32-.52.27-.65-7.75-2-10.33-.35-.66-.83-1.38-1.57-1.48a3,3,0,0,0-1.85.72c-3,1.87-9.18,1.75-12.68,1.28-1.64-.22-3.77-.16-4.35,1.39a3.77,3.77,0,0,0,0,1.83l.89,6.3a12.63,12.63,0,0,1-.1,3,8.51,8.51,0,0,0-.83-1.51c-.16-.2-.26-.37-.5-.42s-.74.27-.78.2A17.88,17.88,0,0,1,251.59,90.16Z" transform="translate(-52.87 -2.2)" fill="#606161"/><path d="M284.5,97.45a4.3,4.3,0,0,1-1.45-1.7c-.25-.71.1-1.68.85-1.77s1.33.59,2,.38.69-1.42.42-2.22l-2.69-7.77c-.34-1-.59-2.22.22-2.84s1.84-.11,2.67.37c1.43.83,3,1.78,3.57,3.33a7.27,7.27,0,0,1,.33,2.67c0,6.49,1,13.86-.11,20.24A16.4,16.4,0,0,0,284.5,97.45Z" transform="translate(-52.87 -2.2)" fill="url(#linear-gradient-21)"/><ellipse cx="231.73" cy="40.62" rx="4.44" ry="4.81" fill="#fff"/><rect x="188.95" y="327.01" width="158.63" height="5.09" fill="url(#linear-gradient-22)"/><path d="M345.57,347.08a5.1,5.1,0,0,1-5.12,5.12H291.63a5.11,5.11,0,1,1,0-10.21h48.82A5.1,5.1,0,0,1,345.57,347.08Z" transform="translate(-52.87 -2.2)" fill="#fff" opacity="0.24" style="isolation:isolate"/><path d="M345.57,347.08a5.1,5.1,0,0,1-5.12,5.12h-2.88a5.11,5.11,0,1,0,0-10.21h2.88A5.1,5.1,0,0,1,345.57,347.08Z" transform="translate(-52.87 -2.2)" fill="url(#linear-gradient-23)"/><path d="M143.83,125.1a2.11,2.11,0,0,0-.3-1.58,1.25,1.25,0,0,0-1.81,0,1.85,1.85,0,0,0-.36.68,5.91,5.91,0,0,0-.16,2,5.27,5.27,0,0,0,.58,2.45,2.2,2.2,0,0,0,2.1,1.17,1.24,1.24,0,0,0,1-1.88c-.21-.38-.76-.5-1-.93A3.25,3.25,0,0,1,143.83,125.1Z" transform="translate(-52.87 -2.2)" opacity="0.5" fill="url(#linear-gradient-24)"/><path d="M106.85,210.12l2.66-39s-4,1.24-6.2,7.13-8,24.67-8,24.67Z" transform="translate(-52.87 -2.2)" opacity="0.5" fill="url(#linear-gradient-25)"/><path d="M171.3,261.07c-4.83,4.42-10.24,8.65-16.25,10.93l-4.51-42.32a82.37,82.37,0,0,1,.28-19.66l2.24-16.53,12.29,6.9c-2,0,.2,31.61,1,37C167.47,245.71,173.51,259,171.3,261.07Z" transform="translate(-52.87 -2.2)" opacity="0.5" fill="url(#linear-gradient-26)"/><path d="M139.59,304.3c-4.4,35.58-3.9,64.94-16.09,98.63v0l-1.62,2.61-3.13.69s4.55-34.55,5-40.6,6.73-69.95,6.73-69.95Z" transform="translate(-52.87 -2.2)" fill="url(#linear-gradient-27)"/><circle cx="224.5" cy="301.18" r="15.19" fill="#0dc07c"/><circle cx="224.62" cy="301.18" r="15.19" fill="url(#linear-gradient-28)"/><circle cx="298.9" cy="301.18" r="15.19" fill="#0dc07c"/><circle cx="299.48" cy="301.18" r="15.19" fill="url(#linear-gradient-29)"/><polygon points="248.36 307.62 247.29 306.36 251.59 302.73 247.84 298.72 249.05 297.59 253.99 302.87 248.36 307.62" fill="#fff"/><polygon points="259.21 307.62 258.15 306.36 262.44 302.73 258.69 298.72 259.9 297.59 264.83 302.87 259.21 307.62" fill="#fff"/><polygon points="270.06 307.62 269 306.36 273.29 302.73 269.54 298.72 270.75 297.59 275.68 302.87 270.06 307.62" fill="#fff"/><path d="M278.07,311.61a6.09,6.09,0,0,1-3.12-.82c-2.83-1.64-4-5.36-4.69-8a6.92,6.92,0,0,1,.58-5.56,5.26,5.26,0,0,1,3.29-2.28,1.42,1.42,0,0,1,1.68,1.14,1.43,1.43,0,0,1-1.13,1.68,2.52,2.52,0,0,0-1.44,1.05,4.29,4.29,0,0,0-.18,3.28c.83,3.36,1.92,5.39,3.33,6.21a4,4,0,0,0,3.19.2,1.44,1.44,0,0,1,.79,2.77A8.32,8.32,0,0,1,278.07,311.61Z" transform="translate(-52.87 -2.2)" fill="#fff"/><path d="M275.53,300.31h-.12a1.44,1.44,0,0,1-1.32-1.55l.39-4.78a1.45,1.45,0,0,1,1.55-1.32,1.43,1.43,0,0,1,1.32,1.55L277,299A1.45,1.45,0,0,1,275.53,300.31Z" transform="translate(-52.87 -2.2)" fill="#fff"/><path d="M282.91,311.72a1.42,1.42,0,0,1-1-.39l-3.52-3.26a1.44,1.44,0,1,1,2-2.11l3.52,3.26a1.44,1.44,0,0,1,.07,2A1.42,1.42,0,0,1,282.91,311.72Z" transform="translate(-52.87 -2.2)" fill="#fff"/></svg>