<?xml version="1.0" standalone="no"?><svg xmlns="http://www.w3.org/2000/svg" viewBox="0 0 1440 320"><path fill="#1a2342" fill-opacity=".5" d="M0,192L40,176C80,160,160,128,240,144C320,160,400,224,480,224C560,224,640,160,720,128C800,96,880,96,960,117.3C1040,139,1120,181,1200,186.7C1280,192,1360,160,1400,144L1440,128L1440,320L1400,320C1360,320,1280,320,1200,320C1120,320,1040,320,960,320C880,320,800,320,720,320C640,320,560,320,480,320C400,320,320,320,240,320C160,320,80,320,40,320L0,320Z"></path></svg>