
<svg viewBox="0 0 500 500" xmlns="http://www.w3.org/2000/svg" width="100%" id="blobSvg">
  <defs>
    <linearGradient id="gradient" x1="0%" y1="0%" x2="0%" y2="100%">
      <stop offset="0%" style="stop-color: rgb(13, 192, 124);"></stop>
      <stop offset="100%" style="stop-color: rgb(26, 35, 66);"></stop>
    </linearGradient>
  </defs>
  <path id="blob" d="M426.5,280.5Q408,311,400.5,345.5Q393,380,372.5,417.5Q352,455,310.5,457.5Q269,460,238.5,428Q208,396,166.5,405.5Q125,415,99,387.5Q73,360,77.5,320.5Q82,281,86.5,250.5Q91,220,69,172.5Q47,125,79.5,96Q112,67,152.5,58.5Q193,50,231.5,43.5Q270,37,306.5,50Q343,63,362.5,96Q382,129,408.5,153.5Q435,178,440,214Q445,250,426.5,280.5Z" fill="url(#gradient)"></path>
</svg>
